<svg width="49" height="48" viewBox="0 0 49 48" fill="none" xmlns="http://www.w3.org/2000/svg">
<path d="M24.5 3C16.673 3 8.75 4.803 8.75 8.25C8.75 8.31675 8.753 8.38275 8.759 8.44725L11.7582 40.6808C11.7604 40.7041 11.7636 40.7274 11.768 40.7505C12.1258 43.5405 18.4183 45 24.5 45C30.554 45 36.8158 43.554 37.2283 40.7685C37.2347 40.7393 37.2392 40.7098 37.2417 40.68L40.241 8.4465C40.247 8.382 40.25 8.316 40.25 8.25C40.25 4.803 32.327 3 24.5 3ZM37.6302 20.3123C37.6295 20.3242 37.6235 20.3347 37.6235 20.3468C37.511 21.3885 33.0298 23.25 24.5 23.25C15.9703 23.25 11.489 21.3885 11.3773 20.352L11.375 20.3153C11.375 20.2987 11.3668 20.2845 11.3653 20.2687L10.481 10.767C13.253 12.5685 18.9432 13.5 24.5 13.5C30.0567 13.5 35.747 12.5685 38.519 10.767L37.6302 20.3123ZM24.5 4.5C33.329 4.5 38.75 6.684 38.75 8.25L38.7478 8.307C38.6038 9.849 33.1145 12 24.5 12C15.8855 12 10.3963 9.84975 10.25 8.25C10.25 6.684 15.671 4.5 24.5 4.5ZM35.7463 40.5427C35.6307 41.778 31.2972 43.5 24.5 43.5C17.7267 43.5 13.3993 41.79 13.2515 40.5135L11.576 22.5278C14.2175 24.0405 19.5282 24.75 24.5 24.75C29.4718 24.75 34.7825 24.0405 37.4248 22.5255L35.7463 40.5427Z" fill="#005087"/>
<path d="M13.2598 17.295C13.1653 17.3268 13.0781 17.3771 13.0033 17.443C12.9286 17.5088 12.8676 17.5889 12.8242 17.6786C12.7807 17.7683 12.7555 17.8658 12.7501 17.9653C12.7447 18.0648 12.7592 18.1644 12.7928 18.2582C12.8263 18.3521 12.8782 18.4383 12.9455 18.5119C13.0127 18.5854 13.094 18.6448 13.1844 18.6866C13.2749 18.7285 13.3728 18.7518 13.4724 18.7553C13.572 18.7589 13.6713 18.7425 13.7645 18.7073C16.3175 17.7953 20.3308 17.25 24.5 17.25C28.805 17.25 32.8955 17.823 35.4418 18.7822C35.5345 18.8198 35.6338 18.8384 35.7338 18.8369C35.8338 18.8355 35.9325 18.8141 36.0241 18.774C36.1157 18.7338 36.1984 18.6758 36.2672 18.6032C36.336 18.5307 36.3897 18.4451 36.4249 18.3515C36.4602 18.2579 36.4764 18.1582 36.4725 18.0582C36.4687 17.9583 36.4449 17.8601 36.4026 17.7695C36.3602 17.6789 36.3002 17.5977 36.226 17.5306C36.1518 17.4635 36.0649 17.412 35.9705 17.379C33.224 16.344 29.0428 15.75 24.5 15.75C20.1035 15.75 16.0063 16.3132 13.2598 17.295ZM16.3385 32.949C16.1405 32.9674 15.958 33.0638 15.831 33.2168C15.704 33.3698 15.6429 33.567 15.6613 33.765L16.259 40.1925C16.2774 40.3906 16.3738 40.5733 16.5269 40.7004C16.68 40.8275 16.8773 40.8885 17.0754 40.8701C17.2735 40.8517 17.4562 40.7554 17.5833 40.6023C17.7104 40.4492 17.7714 40.2519 17.753 40.0537L17.1553 33.6262C17.1463 33.5281 17.1181 33.4326 17.0722 33.3454C17.0262 33.2581 16.9635 33.1808 16.8876 33.1179C16.8117 33.055 16.7242 33.0077 16.6299 32.9787C16.5357 32.9497 16.4367 32.9396 16.3385 32.949ZM16.0393 30.0172C16.2373 29.9988 16.4198 29.9025 16.5468 29.7495C16.6738 29.5965 16.7349 29.3993 16.7165 29.2013L16.4998 26.8733C16.4776 26.6783 16.3799 26.4997 16.2276 26.376C16.0753 26.2522 15.8806 26.1931 15.6852 26.2112C15.4898 26.2294 15.3093 26.3234 15.1824 26.4731C15.0555 26.6228 14.9924 26.8163 15.0065 27.012L15.2233 29.34C15.2417 29.538 15.338 29.7206 15.4911 29.8476C15.6441 29.9746 15.8413 30.0356 16.0393 30.0172Z" fill="#005087"/>
</svg>
