<svg width="49" height="48" viewBox="0 0 49 48" fill="none" xmlns="http://www.w3.org/2000/svg">
<path d="M38 29.25C37.9985 28.7862 37.8535 28.3342 37.585 27.9561C37.3164 27.578 36.9374 27.2922 36.5 27.138V20.8612C36.9374 20.7071 37.3164 20.4213 37.585 20.0432C37.8535 19.665 37.9985 19.2131 38 18.7493C38.0008 17.7242 37.7012 16.7214 37.1383 15.8647C36.5755 15.0081 35.7739 14.3351 34.8328 13.929L29.801 11.7525C29.1173 11.4572 28.5351 10.9681 28.1262 10.3457C27.7173 9.72328 27.4996 8.99473 27.5 8.25V3.75C27.5 3.55109 27.421 3.36032 27.2803 3.21967C27.1397 3.07902 26.9489 3 26.75 3H22.25C22.0511 3 21.8603 3.07902 21.7197 3.21967C21.579 3.36032 21.5 3.55109 21.5 3.75V8.25C21.5002 8.99469 21.2825 9.72315 20.8736 10.3455C20.4647 10.9679 19.8826 11.457 19.199 11.7525L14.168 13.929C13.2266 14.3351 12.4249 15.0082 11.8619 15.865C11.2989 16.7218 10.9992 17.7248 11 18.75C11 19.7265 11.6293 20.5515 12.5 20.862V27.1388C11.6293 27.4493 11 28.2743 11 29.2507C11 30.2272 11.6293 31.0523 12.5 31.3628V37.6395C12.0626 37.7937 11.6836 38.0795 11.415 38.4576C11.1465 38.8357 11.0015 39.2877 11 39.7515C11 42.6465 13.355 45.0015 16.25 45.0015H32.75C35.6443 45.0015 38 42.6465 38 39.7515C37.9985 39.2877 37.8535 38.8357 37.585 38.4576C37.3164 38.0795 36.9374 37.7937 36.5 37.6395V31.3628C36.9374 31.2083 37.3164 30.9224 37.5849 30.5442C37.8535 30.1659 37.9985 29.7139 38 29.25ZM23 4.5H26V7.5H23V4.5ZM14.7628 15.3068L19.7938 13.1302C20.6284 12.769 21.3563 12.1997 21.908 11.4766C22.4597 10.7536 22.8165 9.90114 22.9445 9.00075H26.0555C26.1832 9.90113 26.5399 10.7537 27.0914 11.4767C27.643 12.1998 28.3709 12.7691 29.2055 13.1302L34.238 15.3068C34.9102 15.5969 35.4827 16.0777 35.8847 16.6896C36.2867 17.3015 36.5006 18.0178 36.5 18.75C36.5 19.1632 36.164 19.5 35.75 19.5H17C16.8011 19.5 16.6103 19.579 16.4697 19.7197C16.329 19.8603 16.25 20.0511 16.25 20.25C16.25 20.4489 16.329 20.6397 16.4697 20.7803C16.6103 20.921 16.8011 21 17 21H35V27H14V21C14.1989 21 14.3897 20.921 14.5303 20.7803C14.671 20.6397 14.75 20.4489 14.75 20.25C14.75 20.0511 14.671 19.8603 14.5303 19.7197C14.3897 19.579 14.1989 19.5 14 19.5H13.25C12.8368 19.5 12.5 19.1632 12.5 18.75C12.5 17.2515 13.388 15.9 14.7628 15.3068ZM32.75 43.5H16.25C14.1823 43.5 12.5 41.8177 12.5 39.75C12.5 39.3368 12.8368 39 13.25 39H14C14.1989 39 14.3897 38.921 14.5303 38.7803C14.671 38.6397 14.75 38.4489 14.75 38.25C14.75 38.0511 14.671 37.8603 14.5303 37.7197C14.3897 37.579 14.1989 37.5 14 37.5V31.5C14.1989 31.5 14.3897 31.421 14.5303 31.2803C14.671 31.1397 14.75 30.9489 14.75 30.75C14.75 30.5511 14.671 30.3603 14.5303 30.2197C14.3897 30.079 14.1989 30 14 30H13.25C12.8368 30 12.5 29.6632 12.5 29.25C12.5 28.8368 12.8368 28.5 13.25 28.5H35.75C35.9431 28.5086 36.1254 28.5914 36.259 28.7311C36.3926 28.8708 36.4672 29.0567 36.4672 29.25C36.4672 29.4433 36.3926 29.6292 36.259 29.7689C36.1254 29.9086 35.9431 29.9914 35.75 30H17C16.8011 30 16.6103 30.079 16.4697 30.2197C16.329 30.3603 16.25 30.5511 16.25 30.75C16.25 30.9489 16.329 31.1397 16.4697 31.2803C16.6103 31.421 16.8011 31.5 17 31.5H35V37.5H17.0473C16.8483 37.5 16.6576 37.579 16.5169 37.7197C16.3763 37.8603 16.2973 38.0511 16.2973 38.25C16.2973 38.4489 16.3763 38.6397 16.5169 38.7803C16.6576 38.921 16.8483 39 17.0473 39H35.75C36.164 39 36.5 39.3368 36.5 39.75C36.5 41.8177 34.8178 43.5 32.75 43.5Z" fill="#005087"/>
</svg>
