<svg width="49" height="48" viewBox="0 0 49 48" fill="none" xmlns="http://www.w3.org/2000/svg">
<path d="M18.5 12.75H20.75V9C20.7515 8.5362 20.8965 8.08422 21.165 7.70609C21.4336 7.32795 21.8126 7.04219 22.25 6.888V5.25C22.25 4.0095 23.2595 3 24.5 3H27.5C28.7405 3 29.75 4.0095 29.75 5.25V6.888C30.1874 7.04219 30.5664 7.32795 30.835 7.70609C31.1035 8.08422 31.2485 8.5362 31.25 9V15C31.25 15.9765 30.6207 16.8015 29.75 17.112V19.1947L35.0743 24.6427C35.5036 25.0678 35.7467 25.6459 35.75 26.25C35.75 27.2265 35.1208 28.0515 34.2493 28.362V31.638C35.1208 31.9485 35.75 32.7735 35.75 33.75C35.75 34.7265 35.1208 35.5515 34.2493 35.862V39.138C34.6867 39.2922 35.0657 39.578 35.3342 39.9561C35.6028 40.3342 35.7478 40.7862 35.7493 41.25C35.7493 43.3177 34.067 45 31.9993 45H19.9993C17.9315 45 16.2493 43.3177 16.2493 41.25C16.2505 40.7859 16.3956 40.3337 16.6645 39.9555C16.9334 39.5772 17.3129 39.2916 17.7507 39.138V35.862C16.8792 35.5515 16.25 34.7265 16.25 33.75C16.25 32.7735 16.8792 31.9485 17.7507 31.638V28.362C17.3131 28.208 16.9339 27.9223 16.6652 27.5442C16.3965 27.166 16.2514 26.7139 16.25 26.25C16.2534 25.6455 16.4968 25.0671 16.9265 24.642L22.25 19.1947V17.25H18.5C18.3011 17.25 18.1103 17.329 17.9697 17.4697C17.829 17.6103 17.75 17.8011 17.75 18V20.25C17.75 20.4489 17.671 20.6397 17.5303 20.7803C17.3897 20.921 17.1989 21 17 21H14C13.8011 21 13.6103 20.921 13.4697 20.7803C13.329 20.6397 13.25 20.4489 13.25 20.25V18C13.25 15.1058 15.6057 12.75 18.5 12.75ZM28.25 17.25H23.75V18.75H28.25V17.25ZM29 15.75C29.1989 15.75 29.3897 15.671 29.5303 15.5303C29.671 15.3897 29.75 15.1989 29.75 15V14.25H22.25V15C22.25 15.1989 22.329 15.3897 22.4697 15.5303C22.6103 15.671 22.8011 15.75 23 15.75H29ZM27.5 4.5H24.5C24.3011 4.5 24.1103 4.57902 23.9697 4.71967C23.829 4.86032 23.75 5.05109 23.75 5.25V6.75H28.25V5.25C28.25 5.05109 28.171 4.86032 28.0303 4.71967C27.8897 4.57902 27.6989 4.5 27.5 4.5ZM29.75 9C29.75 8.80109 29.671 8.61032 29.5303 8.46967C29.3897 8.32902 29.1989 8.25 29 8.25H23C22.8011 8.25 22.6103 8.32902 22.4697 8.46967C22.329 8.61032 22.25 8.80109 22.25 9V12.75H29.75V9ZM19.2507 28.5V31.5H32.7493V28.5H19.2507ZM19.2507 36V39H32.7493V36H19.2507ZM19.9993 43.5H31.9993C33.2398 43.5 34.2493 42.4905 34.2493 41.25C34.2491 41.0519 34.1705 40.8619 34.0306 40.7215C33.8908 40.5811 33.7011 40.5017 33.503 40.5007L33.4993 40.5015L33.4918 40.5H18.5075L18.5 40.5015L18.4955 40.5007C18.2972 40.5015 18.1074 40.5808 17.9674 40.7212C17.8274 40.8616 17.7487 41.0517 17.7485 41.25C17.7495 41.8466 17.987 42.4184 18.4089 42.8402C18.8308 43.2619 19.4027 43.4992 19.9993 43.5ZM18.5 34.5H33.5C33.6989 34.5 33.8897 34.421 34.0303 34.2803C34.171 34.1397 34.25 33.9489 34.25 33.75C34.25 33.5511 34.171 33.3603 34.0303 33.2197C33.8897 33.079 33.6989 33 33.5 33H18.5C18.3011 33 18.1103 33.079 17.9697 33.2197C17.829 33.3603 17.75 33.5511 17.75 33.75C17.75 33.9489 17.829 34.1397 17.9697 34.2803C18.1103 34.421 18.3011 34.5 18.5 34.5ZM17.942 25.7475C17.8447 25.8553 17.7808 25.989 17.7581 26.1323C17.7353 26.2757 17.7546 26.4226 17.8137 26.5552C17.8728 26.6878 17.9691 26.8004 18.0909 26.8794C18.2127 26.9583 18.3548 27.0002 18.5 27H33.5C33.6452 27.0002 33.7873 26.9583 33.9091 26.8794C34.0309 26.8004 34.1272 26.6878 34.1863 26.5552C34.2454 26.4226 34.2647 26.2757 34.2419 26.1323C34.2192 25.989 34.1553 25.8553 34.058 25.7475L34.037 25.7273L28.6843 20.25H23.3158L17.963 25.7273C17.9562 25.7342 17.9492 25.7409 17.942 25.7475ZM14.75 19.5H16.25V18C16.25 16.7595 17.2595 15.75 18.5 15.75H20.888C20.804 15.5145 20.75 15.264 20.75 15V14.25H18.5C16.4323 14.25 14.75 15.9323 14.75 18V19.5Z" fill="#005087"/>
</svg>
