<svg width="49" height="48" viewBox="0 0 49 48" fill="none" xmlns="http://www.w3.org/2000/svg">
<path d="M32.75 27H30.5V25.4242C31.3463 25.2502 32.1068 24.7898 32.6532 24.1205C33.1997 23.4512 33.4987 22.614 33.5 21.75C33.4985 21.2862 33.3535 20.8342 33.085 20.4561C32.8164 20.078 32.4374 19.7922 32 19.638V15.6112C32.8708 15.3008 33.5 14.4757 33.5 13.4993C33.5 12.5228 32.8708 11.6978 32 11.3872V7.362C32.4374 7.20781 32.8164 6.92205 33.085 6.54391C33.3535 6.16578 33.4985 5.7138 33.5 5.25C33.5 4.0095 32.4905 3 31.25 3H17.75C16.5095 3 15.5 4.0095 15.5 5.25C15.5 6.2265 16.1293 7.0515 17 7.362V11.3888C16.1293 11.6993 15.5 12.5243 15.5 13.5007C15.5 14.4772 16.1293 15.3022 17 15.6127V19.6395C16.5626 19.7937 16.1836 20.0795 15.915 20.4576C15.6465 20.8357 15.5015 21.2877 15.5 21.7515C15.5014 22.6155 15.8005 23.4526 16.3469 24.1218C16.8934 24.7911 17.6537 25.2516 18.5 25.4258V27H16.25C14.1823 27 12.5 28.6823 12.5 30.75V44.25C12.5 44.4489 12.579 44.6397 12.7197 44.7803C12.8603 44.921 13.0511 45 13.25 45H35.75C35.9489 45 36.1397 44.921 36.2803 44.7803C36.421 44.6397 36.5 44.4489 36.5 44.25V30.75C36.5 28.6823 34.8177 27 32.75 27ZM17.75 4.5H31.25C31.4431 4.50864 31.6254 4.59143 31.759 4.73114C31.8926 4.87084 31.9672 5.0567 31.9672 5.25C31.9672 5.4433 31.8926 5.62916 31.759 5.76886C31.6254 5.90857 31.4431 5.99136 31.25 6H21.5472C21.3483 6 21.1576 6.07902 21.0169 6.21967C20.8763 6.36032 20.7972 6.55109 20.7972 6.75C20.7972 6.94891 20.8763 7.13968 21.0169 7.28033C21.1576 7.42098 21.3483 7.5 21.5472 7.5H30.5V11.25H18.5V7.5C18.6989 7.5 18.8897 7.42098 19.0303 7.28033C19.171 7.13968 19.25 6.94891 19.25 6.75C19.25 6.55109 19.171 6.36032 19.0303 6.21967C18.8897 6.07902 18.6989 6 18.5 6H17.75C17.5569 5.99136 17.3746 5.90857 17.241 5.76886C17.1074 5.62916 17.0328 5.4433 17.0328 5.25C17.0328 5.0567 17.1074 4.87084 17.241 4.73114C17.3746 4.59143 17.5569 4.50864 17.75 4.5ZM17.75 12.75H31.25C31.4431 12.7586 31.6254 12.8414 31.759 12.9811C31.8926 13.1208 31.9672 13.3067 31.9672 13.5C31.9672 13.6933 31.8926 13.8792 31.759 14.0189C31.6254 14.1586 31.4431 14.2414 31.25 14.25H21.5472C21.3483 14.25 21.1576 14.329 21.0169 14.4697C20.8763 14.6103 20.7972 14.8011 20.7972 15C20.7972 15.1989 20.8763 15.3897 21.0169 15.5303C21.1576 15.671 21.3483 15.75 21.5472 15.75H30.5V19.5H18.5V15.75C18.6989 15.75 18.8897 15.671 19.0303 15.5303C19.171 15.3897 19.25 15.1989 19.25 15C19.25 14.8011 19.171 14.6103 19.0303 14.4697C18.8897 14.329 18.6989 14.25 18.5 14.25H17.75C17.5569 14.2414 17.3746 14.1586 17.241 14.0189C17.1074 13.8792 17.0328 13.6933 17.0328 13.5C17.0328 13.3067 17.1074 13.1208 17.241 12.9811C17.3746 12.8414 17.5569 12.7586 17.75 12.75ZM17 21.75C17 21.3368 17.336 21 17.75 21H31.25C31.664 21 32 21.3368 32 21.75C32 22.9905 30.9905 24 29.75 24H19.25C18.0095 24 17 22.9905 17 21.75ZM20 25.5H29V27H20V25.5ZM21.5 34.5V36H20V34.5H21.5ZM19.25 37.5H20V39C20 39.1989 20.079 39.3897 20.2197 39.5303C20.3603 39.671 20.5511 39.75 20.75 39.75C20.9489 39.75 21.1397 39.671 21.2803 39.5303C21.421 39.3897 21.5 39.1989 21.5 39V37.5H22.25C22.4489 37.5 22.6397 37.421 22.7803 37.2803C22.921 37.1397 23 36.9489 23 36.75V34.5H26V36.75C26 36.9489 26.079 37.1397 26.2197 37.2803C26.3603 37.421 26.5511 37.5 26.75 37.5H27.5V39C27.5 39.1989 27.579 39.3897 27.7197 39.5303C27.8603 39.671 28.0511 39.75 28.25 39.75C28.4489 39.75 28.6397 39.671 28.7803 39.5303C28.921 39.3897 29 39.1989 29 39V37.5H29.75C29.9489 37.5 30.1397 37.421 30.2803 37.2803C30.421 37.1397 30.5 36.9489 30.5 36.75V34.5H32V43.5H17V34.5H18.5V36.75C18.5 36.9489 18.579 37.1397 18.7197 37.2803C18.8603 37.421 19.0511 37.5 19.25 37.5ZM29 34.5V36H27.5V34.5H29ZM35 43.5H33.5V33.75C33.5 33.5511 33.421 33.3603 33.2803 33.2197C33.1397 33.079 32.9489 33 32.75 33H16.25C16.0511 33 15.8603 33.079 15.7197 33.2197C15.579 33.3603 15.5 33.5511 15.5 33.75V43.5H14V30.75C14 29.5095 15.0095 28.5 16.25 28.5H32.75C33.9905 28.5 35 29.5095 35 30.75V43.5Z" fill="#005087"/>
<path d="M17.75 31.875C18.3713 31.875 18.875 31.3713 18.875 30.75C18.875 30.1287 18.3713 29.625 17.75 29.625C17.1287 29.625 16.625 30.1287 16.625 30.75C16.625 31.3713 17.1287 31.875 17.75 31.875Z" fill="#005087"/>
<path d="M22.25 31.875C22.8713 31.875 23.375 31.3713 23.375 30.75C23.375 30.1287 22.8713 29.625 22.25 29.625C21.6287 29.625 21.125 30.1287 21.125 30.75C21.125 31.3713 21.6287 31.875 22.25 31.875Z" fill="#005087"/>
<path d="M26.75 31.875C27.3713 31.875 27.875 31.3713 27.875 30.75C27.875 30.1287 27.3713 29.625 26.75 29.625C26.1287 29.625 25.625 30.1287 25.625 30.75C25.625 31.3713 26.1287 31.875 26.75 31.875Z" fill="#005087"/>
<path d="M31.25 31.875C31.8713 31.875 32.375 31.3713 32.375 30.75C32.375 30.1287 31.8713 29.625 31.25 29.625C30.6287 29.625 30.125 30.1287 30.125 30.75C30.125 31.3713 30.6287 31.875 31.25 31.875Z" fill="#005087"/>
</svg>
