<svg width="49" height="28" viewBox="0 0 49 28" fill="none" xmlns="http://www.w3.org/2000/svg">
<path d="M2.29694 7.57801C2.38755 7.64315 2.49232 7.68588 2.60265 7.70268C2.71297 7.71948 2.82571 7.70988 2.9316 7.67466C4.1715 7.26124 6.21716 6.92506 8.76736 6.66576V10.059H5.98569C3.11103 10.059 3.50721 12.3975 3.50721 15.2723C3.5072 15.3648 3.52542 15.4565 3.56082 15.5419C3.59623 15.6274 3.64813 15.7051 3.71356 15.7705C3.779 15.8359 3.85667 15.8878 3.94217 15.9232C4.02766 15.9586 4.11929 15.9768 4.21181 15.9768H8.76736V22.0821L3.22016 22.0821C0.345497 22.0821 0.501492 24.421 0.501492 27.2954C0.50148 27.3879 0.519695 27.4795 0.555103 27.565C0.590508 27.6505 0.64241 27.7282 0.707844 27.7936C0.773273 27.859 0.850956 27.9109 0.936447 27.9463C1.02194 27.9817 1.11356 27.9999 1.20609 27.9999L32.8135 27.9999C32.95 27.9999 32.9735 27.9999 33.1255 28C33.2467 27.9999 33.3619 28 33.5473 28C33.7328 28 33.6579 27.9999 33.9223 27.9999C34.0629 27.9999 34.0722 28 34.2226 27.9999H46.2925C47.5098 27.9999 48.5 27.0096 48.5 25.7924V24.2895C48.5 23.0722 47.5097 22.082 46.2925 22.082H40.2341V15.9767L43.2868 15.9767C44.504 15.9767 45.4943 14.9865 45.4943 13.7693V12.2664C45.4943 11.0491 44.504 10.0589 43.2868 10.0589H40.2341V6.66566C42.7843 6.92497 44.83 7.26114 46.0699 7.67457C46.5189 7.824 46.997 7.47901 46.997 7.00625V0.994717C46.9971 0.902195 46.9788 0.810579 46.9434 0.7251C46.908 0.639618 46.8562 0.561947 46.7907 0.496525C46.7253 0.431103 46.6476 0.379211 46.5622 0.343811C46.4767 0.308411 46.3851 0.290195 46.2925 0.290209L15.8276 0.290209C15.4388 0.290209 15.1235 0.605478 15.1235 0.994717C15.1235 1.38395 15.4388 1.69932 15.8276 1.69932L45.588 1.69932V6.07355C41.2459 5.00109 32.048 4.61101 24.5007 4.61101C16.9534 4.61101 7.75555 5.001 3.41346 6.07365V1.69941L12.4777 1.69941C12.6631 1.69727 12.8403 1.6221 12.9706 1.4902C13.101 1.35831 13.1742 1.18032 13.1742 0.994856C13.1742 0.809391 13.101 0.631405 12.9706 0.499508C12.8403 0.367611 12.6631 0.292439 12.4777 0.2903L2.70895 0.2903C2.61642 0.290276 2.5248 0.308481 2.43931 0.343876C2.35382 0.379271 2.27613 0.431162 2.2107 0.496584C2.14527 0.562008 2.09337 0.639683 2.05796 0.72517C2.02256 0.810658 2.00434 0.902281 2.00435 0.99481V7.00634C2.00435 7.11799 2.03088 7.22804 2.08175 7.32744C2.13262 7.42683 2.20637 7.51271 2.29694 7.57801ZM10.1765 6.5347C10.6928 6.49073 11.226 6.44939 11.7731 6.41133V10.7635C11.7731 11.2038 11.415 11.5619 10.9748 11.5619C10.5347 11.5619 10.1765 11.2038 10.1765 10.7635V6.5347ZM8.72049 11.4681H8.88342C9.17825 12.3408 10.004 12.971 10.9748 12.971C11.9457 12.971 12.7714 12.3408 13.0661 11.4681H32.8135V14.5677L4.98157 14.5677C5.00135 13.7759 4.86073 12.4166 5.32947 11.8072C6.0142 11.146 7.69565 11.4681 8.72049 11.4681ZM35.8192 22.0821H34.2227C34.0669 22.0821 34.1567 22.0821 33.9692 22.0821C33.7817 22.0864 33.7328 22.0821 33.5473 22.0821C33.3619 22.0821 33.3598 22.0864 33.2192 22.0821C32.9849 22.0864 32.9849 22.0864 32.8136 22.0821L13.1823 22.0821V15.9768L32.8135 15.9768C33.0786 15.9768 33.0649 15.9768 33.2798 15.9768C33.4427 15.9768 33.4087 15.9768 33.5942 15.9768C33.7797 15.9768 33.7105 15.9768 33.7348 15.9768C33.8608 15.9768 33.8372 15.9768 34.2226 15.9768H35.8192V22.0821ZM11.7731 15.9768V22.7866C11.7731 23.2268 11.415 23.5849 10.9748 23.5849C10.5347 23.5849 10.1765 23.2268 10.1765 22.7866V15.9768H11.7731ZM3.64202 23.4912L8.88342 23.4912C9.17825 24.3639 10.004 24.9941 10.9748 24.9941C11.9457 24.9941 12.7714 24.3639 13.0661 23.4912L32.8135 23.4912V26.5908L1.97585 26.5908C2.30725 24.829 1.78508 23.4912 3.64202 23.4912ZM47.091 24.2896V25.7922C47.091 26.2325 46.7329 26.5907 46.2926 26.5907L32.8135 26.5908V23.4912L35.9355 23.4911C36.2302 24.3638 37.056 24.994 38.0268 24.994C38.9975 24.994 39.8232 24.3639 40.1181 23.4912H46.2925C46.7327 23.4912 47.0909 23.8493 47.0909 24.2896H47.091ZM38.8251 22.7866C38.8251 23.2268 38.467 23.5849 38.0268 23.5849C37.5865 23.5849 37.2285 23.2268 37.2285 22.7866V15.9768H38.825L38.8251 22.7866ZM44.0853 12.2665V13.7693C44.0853 14.2095 43.7271 14.5677 43.2869 14.5677L32.8135 14.5677V11.4681L35.9355 11.4681C36.2302 12.3408 37.056 12.971 38.0268 12.971C38.9975 12.971 39.8233 12.3408 40.1182 11.4681H43.2868C43.7271 11.4681 44.0853 11.8263 44.0853 12.2665ZM38.8251 10.7635C38.8251 11.2038 38.467 11.5619 38.0268 11.5619C37.5865 11.5619 37.2285 11.2038 37.2285 10.7635V6.41133C37.7756 6.44976 38.3088 6.49073 38.825 6.5347L38.8251 10.7635ZM35.8193 6.32011V10.059H34.2228C34.0178 10.059 34.1437 10.059 33.9223 10.059C33.7407 10.059 33.7328 10.059 33.5473 10.059C33.3619 10.059 33.4536 10.059 33.313 10.059C33.1742 10.059 33.313 10.059 33.0786 10.059H32.8137H13.1824V6.32011C20.1116 5.90884 28.8901 5.90884 35.8193 6.32011Z" fill="#005087"/>
</svg>
