<svg width="27" height="42" viewBox="0 0 27 42" fill="none" xmlns="http://www.w3.org/2000/svg">
<path d="M26.999 26.2491C26.9976 25.7853 26.8526 25.3333 26.584 24.9552C26.3155 24.5771 25.9365 24.2913 25.4991 24.1371V17.8606C25.9365 17.7064 26.3155 17.4207 26.584 17.0426C26.8526 16.6644 26.9976 16.2125 26.999 15.7487C26.9998 14.7237 26.7003 13.7209 26.1374 12.8643C25.5745 12.0077 24.773 11.3347 23.8319 10.9286L18.8003 8.75219C18.1167 8.45688 17.5345 7.96785 17.1256 7.34544C16.7167 6.72304 16.499 5.99452 16.4994 5.24981V0.749973C16.4994 0.551068 16.4204 0.360309 16.2797 0.219662C16.1391 0.079015 15.9483 0 15.7494 0H11.2496C11.0507 0 10.8599 0.079015 10.7193 0.219662C10.5786 0.360309 10.4996 0.551068 10.4996 0.749973V5.24981C10.4998 5.99447 10.2821 6.72291 9.87322 7.34528C9.46435 7.96765 8.88224 8.45673 8.19871 8.75219L3.16789 10.9286C2.22657 11.3347 1.42486 12.0078 0.861864 12.8645C0.298863 13.7213 -0.000769358 14.7242 1.48358e-06 15.7494C1.48358e-06 16.7259 0.629231 17.5509 1.49995 17.8614V24.1379C0.629231 24.4484 1.48358e-06 25.2733 1.48358e-06 26.2498C1.48358e-06 27.2263 0.629231 28.0513 1.49995 28.3617V34.6383C1.06254 34.7924 0.683558 35.0782 0.415006 35.4563C0.146454 35.8344 0.00148799 36.2864 1.48358e-06 36.7502C1.48358e-06 39.6451 2.35493 42 5.24981 42H21.7492C24.6434 42 26.999 39.6451 26.999 36.7502C26.9976 36.2864 26.8526 35.8344 26.584 35.4563C26.3155 35.0782 25.9365 34.7924 25.4991 34.6383V28.3617C25.9365 28.2073 26.3154 27.9214 26.584 27.5432C26.8525 27.1649 26.9975 26.7129 26.999 26.2491ZM11.9996 1.49995H14.9995V4.49984H11.9996V1.49995ZM3.76262 12.3063L8.79344 10.1299C9.62803 9.76868 10.356 9.19934 10.9076 8.47635C11.4592 7.75335 11.8161 6.9009 11.9441 6.00054H15.055C15.1826 6.90089 15.5393 7.75339 16.0908 8.47641C16.6424 9.19943 17.3703 9.76876 18.2049 10.1299L23.2372 12.3063C23.9094 12.5965 24.4818 13.0772 24.8838 13.6891C25.2858 14.301 25.4997 15.0173 25.4991 15.7494C25.4991 16.1627 25.1631 16.4994 24.7491 16.4994H23.9991L4.29293 11.026C4.09402 11.026 3.90326 11.105 3.76262 11.2457C3.62197 11.3863 3.54296 11.5771 3.54296 11.776C3.54296 11.9749 3.62197 12.1657 3.76262 12.3063C4.29293 12.526 3.76262 12.3063 4.29293 12.526L23.9991 17.9994V25.4991H2.99989V23.9991V17.9994C3.1988 17.9994 3.38956 17.9203 3.53021 17.7797C3.67085 17.639 3.74987 17.4483 3.74987 17.2494C3.74987 17.0505 3.67085 16.8597 3.53021 16.7191C3.38956 16.5784 3.1988 16.4994 2.99989 16.4994H2.24992C1.83669 16.4994 1.49995 16.1627 1.49995 15.7494C1.49995 14.251 2.38792 12.8995 3.76262 12.3063ZM21.7492 40.4986H5.24981C3.18214 40.4986 1.49995 38.8164 1.49995 36.7487C1.49995 36.3355 1.83669 35.9987 2.24992 35.9987H2.99989C3.1988 35.9987 3.38956 35.9197 3.53021 35.7791C3.67085 35.6384 3.74987 35.4476 3.74987 35.2487C3.74987 35.0498 3.67085 34.8591 3.53021 34.7184C3.38956 34.5778 3.1988 34.4988 2.99989 34.4988V28.499C3.1988 28.499 3.38956 28.42 3.53021 28.2793C3.67085 28.1387 3.74987 27.9479 3.74987 27.749C3.74987 27.5501 3.67085 27.3593 3.53021 27.2187C3.38956 27.0781 3.1988 26.999 2.99989 26.999H2.24992C1.83669 26.999 1.49995 26.6623 1.49995 26.2491C1.49995 25.8358 1.83669 25.4991 2.24992 25.4991H2.99989H23.9991H24.7491C24.9422 25.5077 25.1245 25.5905 25.2581 25.7302C25.3917 25.8699 25.4663 26.0558 25.4663 26.2491C25.4663 26.4424 25.3917 26.6282 25.2581 26.7679C25.2581 26.7679 25.1651 26.999 24.7901 26.999C24.6145 27.0289 24.383 26.999 24.0402 26.999L2.99989 20.9993C2.80099 20.9993 2.39057 21.2351 2.24992 21.3757C2.10927 21.5163 2.03026 21.7071 2.03026 21.906C2.03026 22.1049 2.10927 22.2957 2.24992 22.4363C2.39057 22.577 2.80099 22.4992 2.99989 22.4992L23.9991 28.499V37.2302L2.99989 30.7489C2.80099 30.7489 2.61023 30.8279 2.46958 30.9686C2.32894 31.1092 2.24992 31.3 2.24992 31.4989C2.24992 31.6978 2.32894 31.8885 2.46958 32.0292C2.61023 32.1698 2.80099 32.2488 2.99989 32.2488L24.7901 38.9986C25.2041 38.9986 25.9151 36.3737 25.4991 36.7487C25.4991 38.8164 23.8169 40.4986 21.7492 40.4986Z" fill="#005087"/>
</svg>
