<svg width="48" height="48" viewBox="0 0 48 48" fill="none" xmlns="http://www.w3.org/2000/svg">
<circle cx="24" cy="24" r="23" stroke="#00AFF0" stroke-width="2"/>
<path d="M46.956 23.9995C46.956 36.678 36.678 46.956 23.9995 46.956C11.321 46.956 1.04297 36.678 1.04297 23.9995C1.04297 11.321 11.321 1.04297 23.9995 1.04297" stroke="#00AFF0" stroke-width="2"/>
<g clip-path="url(#clip0_311_720)">
<path d="M32.5876 25.1428H16.4566C16.2106 25.1428 15.9882 24.9916 15.894 24.7605C15.7998 24.5288 15.8519 24.2624 16.026 24.0852L23.33 16.6504C23.5679 16.4082 23.9527 16.4082 24.1906 16.6504C24.4285 16.8927 24.4285 17.2843 24.1906 17.5265L17.9262 23.9037H32.5869C32.924 23.9037 33.196 24.1813 33.196 24.5233C33.196 24.8653 32.924 25.1428 32.5876 25.1428Z" fill="#00AFF0"/>
<path d="M23.762 32.5786C23.6065 32.5786 23.4504 32.5179 23.3314 32.3971L18.4616 27.4406C18.2237 27.1983 18.2237 26.8067 18.4616 26.5645C18.6996 26.3223 19.0843 26.3223 19.3222 26.5645L24.192 31.521C24.4299 31.7633 24.4299 32.1548 24.192 32.3971C24.0737 32.5179 23.9175 32.5786 23.762 32.5786Z" fill="#00AFF0"/>
</g>
<defs>
<clipPath id="clip0_311_720">
<rect width="19.8261" height="19.8261" fill="white" transform="translate(14.6094 14.6094)"/>
</clipPath>
</defs>
</svg>
