<svg width="48" height="48" viewBox="0 0 48 48" fill="none" xmlns="http://www.w3.org/2000/svg">
<circle cx="24" cy="24" r="23" transform="matrix(-1 0 0 1 48 0)" stroke="#FFFFFF" stroke-width="2"/>
<path d="M1.04399 23.9995C1.04399 36.678 11.322 46.956 24.0005 46.956C36.679 46.956 46.957 36.678 46.957 23.9995C46.957 11.321 36.679 1.04297 24.0005 1.04297" stroke="#FFFFFF" stroke-width="2"/>
<g clip-path="url(#clip0_311_707)">
<path d="M15.4124 25.1428H31.5434C31.7894 25.1428 32.0118 24.9916 32.106 24.7605C32.2002 24.5288 32.1481 24.2624 31.974 24.0852L24.67 16.6504C24.4321 16.4082 24.0473 16.4082 23.8094 16.6504C23.5715 16.8927 23.5715 17.2843 23.8094 17.5265L30.0738 23.9037H15.4131C15.076 23.9037 14.804 24.1813 14.804 24.5233C14.804 24.8653 15.076 25.1428 15.4124 25.1428Z" fill="#FFFFFF"/>
<path d="M24.238 32.5786C24.3935 32.5786 24.5496 32.5179 24.6686 32.3971L29.5384 27.4406C29.7763 27.1983 29.7763 26.8067 29.5384 26.5645C29.3004 26.3223 28.9157 26.3223 28.6778 26.5645L23.808 31.521C23.5701 31.7633 23.5701 32.1548 23.808 32.3971C23.9263 32.5179 24.0825 32.5786 24.238 32.5786Z" fill="#FFFFFF"/>
</g>
<defs>
<clipPath id="clip0_311_707">
<rect width="19.8261" height="19.8261" fill="white" transform="matrix(-1 0 0 1 33.3906 14.6094)"/>
</clipPath>
</defs>
</svg>
