<svg width="47" height="36" viewBox="0 0 47 36" fill="none" xmlns="http://www.w3.org/2000/svg">
<path d="M12.4974 33.3346C13.2338 33.3346 13.8307 32.7377 13.8307 32.0013C13.8307 31.2649 13.2338 30.668 12.4974 30.668C11.761 30.668 11.1641 31.2649 11.1641 32.0013C11.1641 32.7377 11.761 33.3346 12.4974 33.3346Z" stroke="#005087" stroke-width="2" stroke-linecap="round" stroke-linejoin="round"/>
<path d="M27.1693 33.3346C27.9057 33.3346 28.5026 32.7377 28.5026 32.0013C28.5026 31.2649 27.9057 30.668 27.1693 30.668C26.4329 30.668 25.8359 31.2649 25.8359 32.0013C25.8359 32.7377 26.4329 33.3346 27.1693 33.3346Z" stroke="#005087" stroke-width="2" stroke-linecap="round" stroke-linejoin="round"/>
<path d="M1.83594 5.33203H7.16927L10.7426 23.1854C10.8645 23.7992 11.1985 24.3506 11.686 24.7431C12.1735 25.1355 12.7835 25.344 13.4093 25.332H26.3693C26.995 25.344 27.605 25.1355 28.0925 24.7431C28.5801 24.3506 28.914 23.7992 29.0359 23.1854L31.1693 11.9987H8.5026" stroke="#005087" stroke-width="2" stroke-linecap="round" stroke-linejoin="round"/>
<path d="M34 17.5C38.6944 17.5 42.5 13.6944 42.5 9C42.5 4.30558 38.6944 0.5 34 0.5C29.3056 0.5 25.5 4.30558 25.5 9C25.5 13.6944 29.3056 17.5 34 17.5Z" fill="white" stroke="#005087" stroke-linecap="round" stroke-linejoin="round"/>
<path d="M34.1961 13.12C33.5321 13.12 32.9321 12.952 32.3961 12.616C31.8681 12.28 31.4521 11.792 31.1481 11.152C30.8441 10.504 30.6921 9.72 30.6921 8.8C30.6921 7.88 30.8441 7.1 31.1481 6.46C31.4521 5.812 31.8681 5.32 32.3961 4.984C32.9321 4.648 33.5321 4.48 34.1961 4.48C34.8681 4.48 35.4681 4.648 35.9961 4.984C36.5241 5.32 36.9401 5.812 37.2441 6.46C37.5561 7.1 37.7121 7.88 37.7121 8.8C37.7121 9.72 37.5561 10.504 37.2441 11.152C36.9401 11.792 36.5241 12.28 35.9961 12.616C35.4681 12.952 34.8681 13.12 34.1961 13.12ZM34.1961 11.764C34.5881 11.764 34.9281 11.66 35.2161 11.452C35.5041 11.236 35.7281 10.908 35.8881 10.468C36.0561 10.028 36.1401 9.472 36.1401 8.8C36.1401 8.12 36.0561 7.564 35.8881 7.132C35.7281 6.692 35.5041 6.368 35.2161 6.16C34.9281 5.944 34.5881 5.836 34.1961 5.836C33.8201 5.836 33.4841 5.944 33.1881 6.16C32.9001 6.368 32.6721 6.692 32.5041 7.132C32.3441 7.564 32.2641 8.12 32.2641 8.8C32.2641 9.472 32.3441 10.028 32.5041 10.468C32.6721 10.908 32.9001 11.236 33.1881 11.452C33.4841 11.66 33.8201 11.764 34.1961 11.764Z" fill="#F5821E"/>
</svg>
