<svg width="46" height="36" viewBox="0 0 46 36" fill="none" xmlns="http://www.w3.org/2000/svg">
<path d="M11.9974 33.3346C12.7338 33.3346 13.3307 32.7377 13.3307 32.0013C13.3307 31.2649 12.7338 30.668 11.9974 30.668C11.261 30.668 10.6641 31.2649 10.6641 32.0013C10.6641 32.7377 11.261 33.3346 11.9974 33.3346Z" stroke="#005087" stroke-width="2" stroke-linecap="round" stroke-linejoin="round"/>
<path d="M26.6693 33.3346C27.4057 33.3346 28.0026 32.7377 28.0026 32.0013C28.0026 31.2649 27.4057 30.668 26.6693 30.668C25.9329 30.668 25.3359 31.2649 25.3359 32.0013C25.3359 32.7377 25.9329 33.3346 26.6693 33.3346Z" stroke="#005087" stroke-width="2" stroke-linecap="round" stroke-linejoin="round"/>
<path d="M1.33594 5.33203H6.66927L10.2426 23.1854C10.3645 23.7992 10.6985 24.3506 11.186 24.7431C11.6735 25.1355 12.2835 25.344 12.9093 25.332H25.8693C26.495 25.344 27.105 25.1355 27.5925 24.7431C28.0801 24.3506 28.414 23.7992 28.5359 23.1854L30.6693 11.9987H8.0026" stroke="#005087" stroke-width="2" stroke-linecap="round" stroke-linejoin="round"/>
<path d="M33.5 17.5C38.1944 17.5 42 13.6944 42 9C42 4.30558 38.1944 0.5 33.5 0.5C28.8056 0.5 25 4.30558 25 9C25 13.6944 28.8056 17.5 33.5 17.5Z" fill="white" stroke="#005087" stroke-linecap="round" stroke-linejoin="round"/>
</svg>
