<svg width="49" height="48" viewBox="0 0 49 48" fill="none" xmlns="http://www.w3.org/2000/svg">
<path d="M36.5089 33.4978C40.2995 33.4978 43.3834 30.4136 43.3834 26.6225V10.2397C43.3834 6.44905 40.2994 3.36523 36.5089 3.36523H28.0508C24.5059 3.36523 21.5794 6.06027 21.2128 9.5082C21.1485 9.6208 21.1148 9.74822 21.1148 9.87786C21.1148 9.98248 21.1364 10.0821 21.1752 10.1726C21.1749 10.195 21.1734 10.2172 21.1734 10.2397V20.6519H19.179V18.6421H19.8843C20.0832 18.6421 20.2739 18.5631 20.4146 18.4224C20.5552 18.2818 20.6343 18.091 20.6343 17.8921C20.6343 17.6932 20.5552 17.5024 20.4146 17.3617C20.2739 17.2211 20.0832 17.1421 19.8843 17.1421H14.2028C14.0039 17.1421 13.8132 17.2211 13.6725 17.3617C13.5318 17.5024 13.4528 17.6932 13.4528 17.8921C13.4528 18.091 13.5318 18.2818 13.6725 18.4224C13.8132 18.5631 14.0039 18.6421 14.2028 18.6421H17.6789V20.6519H17.1537C15.5488 20.6519 14.243 21.9576 14.243 23.5625V25.2735H15.743V23.5625C15.743 22.7847 16.3759 22.1519 17.1537 22.1519H21.1732V26.6226C21.1732 30.4137 24.2585 33.4979 28.0506 33.4979H28.4241V34.1031C26.5121 34.2302 24.73 34.859 23.3449 35.9084C21.9315 36.9791 21.072 38.3724 20.8758 39.8861H6.36523C6.16632 39.8861 5.97556 39.9651 5.8349 40.1058C5.69425 40.2464 5.61523 40.4372 5.61523 40.6361V43.8874C5.61523 44.0863 5.69425 44.277 5.8349 44.4177C5.97556 44.5583 6.16632 44.6374 6.36523 44.6374H42.6334C42.8323 44.6374 43.023 44.5583 43.1637 44.4177C43.3043 44.277 43.3834 44.0863 43.3834 43.8874V40.5571C43.3834 38.7865 42.4911 37.1357 40.8712 35.9085C39.4822 34.8562 37.6936 34.2269 35.775 34.1023V33.498H36.5089V33.4978ZM28.0508 4.86523H36.5089C39.0912 4.86523 41.2534 6.69608 41.767 9.12795H22.7898C23.3036 6.69608 25.467 4.86523 28.0508 4.86523ZM22.6733 26.6225V16.3855H26.7705C26.9694 16.3855 27.1602 16.3065 27.3008 16.1658C27.4415 16.0252 27.5205 15.8344 27.5205 15.6355C27.5205 15.4366 27.4415 15.2458 27.3008 15.1052C27.1602 14.9645 26.9694 14.8855 26.7705 14.8855H22.6733V13.6426H29.0074C29.2063 13.6426 29.397 13.5636 29.5377 13.4229C29.6783 13.2823 29.7574 13.0915 29.7574 12.8926C29.7574 12.6937 29.6783 12.5029 29.5377 12.3622C29.397 12.2216 29.2063 12.1426 29.0074 12.1426H22.6733V10.628H41.8834V18.6253H37.3936C37.1947 18.6253 37.0039 18.7043 36.8632 18.845C36.7226 18.9856 36.6436 19.1764 36.6436 19.3753C36.6436 19.5742 36.7226 19.765 36.8632 19.9056C37.0039 20.0463 37.1947 20.1253 37.3936 20.1253H41.8834V21.3667H35.1568C34.9579 21.3667 34.7671 21.4458 34.6265 21.5864C34.4858 21.7271 34.4068 21.9178 34.4068 22.1167C34.4068 22.3156 34.4858 22.5064 34.6265 22.6471C34.7671 22.7877 34.9579 22.8667 35.1568 22.8667H41.8834V26.6226C41.8834 29.5865 39.4723 31.9979 36.5089 31.9979H28.0508C25.0857 31.9978 22.6733 29.5865 22.6733 26.6225ZM41.8086 39.8223H37.0237C36.8248 39.8223 36.6341 39.9013 36.4934 40.0419C36.3528 40.1826 36.2737 40.3734 36.2737 40.5723C36.2737 40.7712 36.3528 40.9619 36.4934 41.1026C36.6341 41.2432 36.8248 41.3223 37.0237 41.3223H41.8834V43.1372H7.11523V41.3859H21.5827C21.6846 41.3859 21.7853 41.3652 21.8789 41.325C21.9724 41.2848 22.0568 41.226 22.1269 41.1521C22.197 41.0782 22.2513 40.9908 22.2865 40.8953C22.3217 40.7998 22.3371 40.698 22.3317 40.5964C22.3324 40.5832 22.3327 40.5701 22.3327 40.5568C22.3327 37.8114 25.3894 35.5778 29.1465 35.5778H35.0689C38.4848 35.5778 41.321 37.424 41.8086 39.8223ZM34.2749 34.0778H29.9243V33.4977H34.2749V34.0778ZM26.4761 37.0156H26.3209C24.924 37.0156 23.7875 38.1521 23.7875 39.549C23.7875 40.9447 24.924 42.0802 26.3209 42.0802H26.4761C27.8735 42.0802 29.0103 40.9447 29.0103 39.549C29.0103 38.1521 27.8735 37.0156 26.4761 37.0156ZM26.4761 40.5803H26.3209C25.751 40.5803 25.2875 40.1177 25.2875 39.5491C25.2875 38.9793 25.751 38.5157 26.3209 38.5157H26.4761C27.0464 38.5157 27.5103 38.9793 27.5103 39.5491C27.5103 40.1177 27.0464 40.5803 26.4761 40.5803ZM8.88111 37.6989H10.788C11.7264 38.964 13.2304 39.7856 14.9228 39.7856C17.7604 39.7856 20.0689 37.4771 20.0689 34.6396V31.674H8.88111C7.22005 31.674 5.86864 33.0254 5.86864 34.6865C5.86864 36.3475 7.22005 37.6989 8.88111 37.6989ZM11.2769 33.1741H18.5689V34.6397C18.5689 36.65 16.9333 38.2857 14.9228 38.2857C12.9124 38.2857 11.2768 36.6501 11.2768 34.6397L11.2769 33.1741ZM8.88111 33.1741H9.77689V34.6397C9.77689 35.1831 9.8622 35.7068 10.019 36.199H8.88111C8.04711 36.199 7.36864 35.5205 7.36864 34.6865C7.36864 33.8525 8.0472 33.1741 8.88111 33.1741ZM15.0313 30.5937C14.8324 30.5937 14.6416 30.5147 14.501 30.374C14.3603 30.2334 14.2813 30.0426 14.2813 29.8437V27.2846C14.2813 27.0857 14.3603 26.8949 14.501 26.7543C14.6416 26.6136 14.8324 26.5346 15.0313 26.5346C15.2302 26.5346 15.421 26.6136 15.5616 26.7543C15.7023 26.8949 15.7813 27.0857 15.7813 27.2846V29.8437C15.7813 30.0426 15.7023 30.2334 15.5616 30.374C15.421 30.5147 15.2302 30.5937 15.0313 30.5937ZM17.7206 30.2427L16.113 27.6836C16.0606 27.6002 16.0251 27.5073 16.0087 27.4102C15.9922 27.3131 15.995 27.2137 16.0169 27.1177C16.0388 27.0216 16.0795 26.9309 16.1365 26.8506C16.1935 26.7702 16.2657 26.7019 16.3491 26.6495C16.4325 26.5972 16.5255 26.5617 16.6226 26.5452C16.7197 26.5287 16.8191 26.5315 16.9151 26.5535C17.0111 26.5754 17.1019 26.616 17.1822 26.673C17.2625 26.73 17.3308 26.8023 17.3832 26.8857L18.9908 29.4448C19.0432 29.5282 19.0787 29.6211 19.0952 29.7182C19.1116 29.8153 19.1088 29.9147 19.0869 30.0107C19.065 30.1068 19.0244 30.1975 18.9673 30.2778C18.9103 30.3582 18.8381 30.4265 18.7547 30.4789C18.6713 30.5313 18.5784 30.5667 18.4813 30.5832C18.3842 30.5997 18.2848 30.5969 18.1887 30.5749C18.0927 30.553 18.0019 30.5124 17.9216 30.4554C17.8413 30.3984 17.773 30.3261 17.7206 30.2427ZM11.0711 29.4446L12.6795 26.8855C12.7859 26.7183 12.9541 26.5999 13.1475 26.5564C13.3408 26.5128 13.5436 26.5475 13.7114 26.653C13.8792 26.7585 13.9984 26.9261 14.0431 27.1192C14.0877 27.3123 14.0541 27.5152 13.9495 27.6836L12.3411 30.2427C12.2888 30.3261 12.2205 30.3984 12.1401 30.4554C12.0598 30.5125 11.969 30.5531 11.873 30.575C11.777 30.5969 11.6775 30.5996 11.5804 30.5831C11.4833 30.5666 11.3904 30.531 11.3071 30.4786C11.2237 30.4262 11.1514 30.3579 11.0944 30.2776C11.0374 30.1973 10.9968 30.1065 10.9749 30.0105C10.953 29.9145 10.9502 29.8151 10.9667 29.718C10.9832 29.6209 11.0187 29.528 11.0711 29.4446Z" fill="#005087"/>
</svg>
