<svg width="32" height="32" viewBox="0 0 32 32" fill="none" xmlns="http://www.w3.org/2000/svg">
<path d="M17.6636 29.3261H13.4395C12.7339 29.3261 12.16 28.7533 12.16 28.0491V18.5399H9.69553C8.98997 18.5399 8.41602 17.9669 8.41602 17.2629V13.1882C8.41602 12.484 8.98997 11.9112 9.69553 11.9112H12.16V9.87075C12.16 7.84757 12.7965 6.12626 14.0006 4.89323C15.2101 3.65458 16.9003 3 18.8886 3L22.1101 3.00522C22.8145 3.00643 23.3874 3.57926 23.3874 4.28224V8.06549C23.3874 8.76968 22.8137 9.34251 22.1083 9.34251L19.9393 9.34331C19.2778 9.34331 19.1094 9.47567 19.0734 9.51625C19.014 9.58353 18.9434 9.77374 18.9434 10.299V11.911H21.9453C22.1713 11.911 22.3903 11.9666 22.5784 12.0715C22.9844 12.2978 23.2367 12.7259 23.2367 13.1884L23.2351 17.2631C23.2351 17.9669 22.6612 18.5397 21.9556 18.5397H18.9434V28.0491C18.9434 28.7533 18.3692 29.3261 17.6636 29.3261ZM13.7063 27.7827H17.3968V17.849C17.3968 17.3788 17.7802 16.9964 18.2511 16.9964H21.6887L21.6901 13.4546H18.2509C17.78 13.4546 17.3968 13.0721 17.3968 12.6019V10.299C17.3968 9.69601 17.4582 9.0103 17.9142 8.49491C18.4652 7.87187 19.3336 7.79996 19.9389 7.79996L21.8411 7.79916V4.54817L18.8874 4.54335C15.692 4.54335 13.7063 6.58481 13.7063 9.87075V12.6019C13.7063 13.0719 13.3232 13.4546 12.8523 13.4546H9.96238V16.9964H12.8523C13.3232 16.9964 13.7063 17.3788 13.7063 17.849V27.7827ZM22.1071 4.54857H22.1073H22.1071Z" fill="#00AFF0"/>
</svg>
