<svg width="164" height="60" viewBox="0 0 164 60" fill="none" xmlns="http://www.w3.org/2000/svg">
<g clip-path="url(#clip0_140_10189)">
<g filter="url(#filter0_d_140_10189)">
<path d="M138.832 35.0798H127.629C127.629 35.0798 121.748 34.5907 120.347 41.3455C118.945 48.1042 119.326 46.5059 119.326 46.5059C118.691 49.4597 117.951 51.6048 117.108 52.9527H114.189V60.0002H121.641V57.5894H133.621V60.0002H141.073V52.9527H138.836V35.0798H138.832ZM131.522 52.9527H124.313C125.126 51.3198 126.031 49.4636 126.162 47.28C126.689 38.6882 130.513 39.805 130.513 39.805H131.519V52.9527H131.522ZM163.259 39.7819C162.936 38.565 162.389 37.5676 161.626 36.7973C160.864 36.0233 159.855 35.4495 158.607 35.0798C157.359 34.7062 155.807 34.5175 153.959 34.5175C152.338 34.5175 150.608 34.6831 148.771 35.0143C146.938 35.3416 145.336 35.7922 143.973 36.3699L145.872 40.5368C146.911 40.1324 148.005 39.8205 149.16 39.5894C150.312 39.3622 151.621 39.2466 153.081 39.2466C154.479 39.2466 155.453 39.624 156.004 40.3827C156.558 41.1414 156.832 42.108 156.832 43.2826V44.099H153.712C150.077 44.099 147.358 44.6497 145.556 45.7511C143.753 46.8525 142.852 48.7203 142.852 51.3583C142.852 53.5688 143.519 55.2826 144.847 56.5149C146.18 57.7473 148.044 58.3635 150.447 58.3635C151.714 58.3635 152.888 58.1285 153.978 57.6549C155.06 57.1812 156.223 56.4726 157.46 55.5252L157.552 58.3596L163.641 58.2749L163.744 52.9065V44.1837C163.748 42.4662 163.583 40.9989 163.259 39.7819ZM156.828 52.09C156.374 52.4905 155.773 52.8487 155.022 53.1645C154.275 53.4803 153.578 53.6382 152.931 53.6382C151.922 53.6382 151.151 53.4302 150.616 53.0143C150.081 52.5984 149.815 51.8474 149.815 50.7576C149.815 49.5252 150.154 48.7242 150.836 48.3545C151.517 47.9809 152.476 47.7961 153.709 47.7961H156.828V52.09ZM101.68 34.1555C94.964 34.1555 89.5032 39.6202 89.5032 46.3326C89.5032 53.0451 94.964 58.5059 101.68 58.5059C108.393 58.5059 113.854 53.0451 113.854 46.3326C113.854 39.624 108.393 34.1555 101.68 34.1555ZM101.68 52.4212C98.3222 52.4212 95.5918 49.6908 95.5918 46.3365C95.5918 42.9783 98.326 40.2479 101.68 40.2479C105.035 40.2479 107.765 42.9783 107.765 46.3365C107.765 49.6908 105.035 52.4212 101.68 52.4212ZM87.4159 45.2582C86.6226 43.9835 85.1668 42.9283 83.0603 42.1003C84.5237 41.3224 85.5789 40.402 86.2221 39.3275C86.8767 38.2531 87.1964 37.0708 87.1964 35.7807C87.1964 35.3262 87.1656 34.8988 87.1155 34.4828C87.0038 33.5701 86.7805 32.7537 86.4223 32.0412C85.8947 31.013 85.1592 30.1581 84.2002 29.488C83.3222 28.868 82.2477 28.4058 81.0038 28.0862C80.896 28.0592 80.7997 28.0284 80.6919 28.0053C80.6303 27.9899 80.5687 27.9784 80.507 27.9668H79.552H75.1617C74.1489 29.3031 72.9396 30.7319 71.4993 32.2569H74.4801C76.2323 32.2569 77.5263 32.538 78.3543 33.0964C79.1784 33.6549 79.5982 34.6523 79.5982 36.081C79.5982 37.5098 79.2208 38.5149 78.4775 39.0849C77.7304 39.6626 76.4788 39.9475 74.7265 39.9475H70.8793V32.9077C68.9153 34.9334 66.5661 37.1285 63.7509 39.5008L63.1348 40.09V58.5098H76.5289C80.5879 58.5098 83.6187 57.7627 85.6136 56.2762C87.6123 54.7896 88.6097 52.5676 88.6097 49.6138C88.6097 47.9809 88.2092 46.5291 87.4159 45.2582ZM80.4531 51.547C80.1758 52.0939 79.7792 52.5136 79.2593 52.8179C78.7355 53.1183 78.104 53.3185 77.3568 53.4187C76.6136 53.5226 75.7817 53.5727 74.8729 53.5727H70.8755V45.2813H75.1117C76.0552 45.2813 76.887 45.3275 77.5956 45.4315C78.3119 45.5316 78.9165 45.7319 79.3979 46.0323C79.887 46.3326 80.249 46.7486 80.4955 47.28C80.7381 47.8115 80.8575 48.5162 80.8575 49.4097C80.8652 50.2877 80.7304 51.0079 80.4531 51.547Z" fill="white"/>
<path d="M63.1348 32.2223C64.6598 30.8359 66.1386 29.4033 67.4865 27.9668L63.1348 32.2223Z" fill="white"/>
<path d="M52.0046 25.8251C52.0239 25.829 52.0431 25.8328 52.0662 25.8405C51.897 25.6749 51.7278 25.5093 51.5586 25.3438C51.7162 25.5093 51.8662 25.6672 52.0046 25.8251Z" fill="white"/>
<path d="M51.5507 25.3436C51.5507 25.3398 51.5468 25.3398 51.543 25.3359C51.5468 25.3398 51.5507 25.3436 51.5584 25.3436C51.5545 25.3475 51.5545 25.3436 51.5507 25.3436Z" fill="#91C81E"/>
<path d="M21.3081 16.8254C21.4544 17.4724 21.5276 18.1463 21.5276 18.8511C21.5276 21.2734 20.5879 23.1605 18.7125 24.5237C16.8331 25.887 14.1142 26.5648 10.5443 26.5648C9.31964 26.5648 8.19897 26.4878 7.18614 26.3376C6.17715 26.1874 5.24519 25.9795 4.39024 25.7214C3.5353 25.4634 2.75353 25.1669 2.03338 24.8241C1.31707 24.4814 0.639281 24.1271 0 23.7497L2.39923 20.0141C3.0077 20.3222 3.58922 20.6033 4.13607 20.8614C4.68293 21.1194 5.26829 21.3427 5.89217 21.5315C6.5199 21.7163 7.2208 21.8665 7.99101 21.9743C8.76123 22.0783 9.66624 22.1322 10.706 22.1322C12.3312 22.1322 13.4904 21.8318 14.1797 21.2311C14.8729 20.6341 15.2157 19.8062 15.2157 18.7471C15.2157 17.4763 14.819 16.5558 14.0218 15.982C13.2208 15.4082 11.8498 15.1155 9.90501 15.1155H5.23363V10.887H9.15019C10.9602 10.887 12.3119 10.6521 13.2015 10.1823C14.095 9.71245 14.5379 8.819 14.5379 7.50578C14.5379 6.58922 14.2413 5.83825 13.6406 5.24904C13.0398 4.66367 11.9153 4.36714 10.2632 4.36714C8.82285 4.36714 7.53273 4.56739 6.38896 4.96406C5.24133 5.36457 4.21694 5.78819 3.31194 6.23492L1.03979 2.53787C2.34531 1.85623 3.79718 1.26316 5.39538 0.758665C6.98973 0.254172 8.89602 0 11.1065 0C13.0244 0 14.611 0.192555 15.8626 0.581515C17.1104 0.970475 18.0963 1.49422 18.8126 2.15276C19.5366 2.8113 20.0411 3.55456 20.3338 4.39024C20.6303 5.22593 20.7766 6.08472 20.7766 6.97818C20.7766 7.37484 20.7304 7.82157 20.6341 8.31451C20.5456 8.8113 20.3646 9.30809 20.0988 9.81258C19.8293 10.3171 19.4519 10.81 18.9589 11.2914C18.466 11.7728 17.8306 12.2003 17.0603 12.5738C17.9114 12.8549 18.6239 13.2054 19.1977 13.6136C19.7676 14.0257 20.2259 14.5032 20.5764 15.0424C20.9153 15.5854 21.1656 16.1784 21.3081 16.8254ZM143.272 20.6496C143.272 22.3864 142.683 23.7035 141.497 24.5931C140.311 25.4865 138.508 25.9332 136.086 25.9332H125.218V7.47112H135.805C137.854 7.47112 139.475 7.86008 140.657 8.63415C141.84 9.40822 142.433 10.6637 142.433 12.4005C142.433 13.1553 142.24 13.8485 141.855 14.4801C141.466 15.1117 140.834 15.6662 139.956 16.1361C141.235 16.629 142.105 17.2567 142.571 18.0193C143.037 18.7856 143.272 19.6637 143.272 20.6496ZM131.211 14.7304H133.687C134.73 14.7304 135.474 14.5841 135.924 14.2875C136.375 13.9949 136.602 13.4711 136.602 12.7202C136.602 11.9692 136.359 11.4917 135.863 11.2914C135.37 11.0911 134.588 10.991 133.525 10.991H131.207V14.7304H131.211ZM137.361 20.5071C137.361 19.5674 137.064 18.9705 136.479 18.7086C135.893 18.4506 135.042 18.3196 133.926 18.3196H131.207V22.4056H133.764C134.322 22.4056 134.823 22.3941 135.258 22.371C135.697 22.3479 136.071 22.2747 136.375 22.1592C136.683 22.0436 136.922 21.8549 137.095 21.5969C137.276 21.3427 137.361 20.9769 137.361 20.5071ZM156.928 14.8691V14.199C156.928 13.2362 156.701 12.4429 156.25 11.8229C155.796 11.199 154.999 10.887 153.851 10.887C152.653 10.887 151.583 10.9833 150.639 11.1682C149.692 11.3569 148.791 11.6149 147.94 11.9461L146.38 8.52632C147.501 8.05648 148.81 7.68678 150.312 7.41335C151.818 7.14377 153.235 7.00899 154.571 7.00899C156.089 7.00899 157.359 7.16303 158.384 7.46727C159.412 7.77535 160.232 8.24519 160.86 8.87677C161.488 9.5122 161.935 10.3286 162.2 11.3261C162.466 12.3273 162.601 13.525 162.601 14.9384V22.0937L162.516 26.4994L157.525 26.5687L157.448 24.2426C156.435 25.0205 155.484 25.5982 154.594 25.9872C153.701 26.3723 152.738 26.5648 151.698 26.5648C149.727 26.5648 148.198 26.0603 147.104 25.0513C146.014 24.0424 145.471 22.629 145.471 20.8229C145.471 18.6624 146.211 17.1297 147.685 16.2246C149.164 15.3196 151.39 14.8691 154.375 14.8691H156.928ZM156.928 17.8999H154.371C153.358 17.8999 152.573 18.0539 152.014 18.3582C151.452 18.6662 151.175 19.3209 151.175 20.3299C151.175 21.2234 151.394 21.8434 151.833 22.1823C152.272 22.5212 152.908 22.6945 153.732 22.6945C154.263 22.6945 154.837 22.5635 155.449 22.3055C156.062 22.0475 156.555 21.7548 156.924 21.4236V17.8999H156.928ZM102.508 16.7022C102.508 11.1951 106.983 6.7163 112.49 6.7163C117.994 6.7163 122.476 11.1951 122.476 16.7022C122.476 22.2054 117.994 26.6881 112.49 26.6881C106.983 26.6881 102.508 22.2092 102.508 16.7022ZM107.499 16.7022C107.499 19.4519 109.741 21.6932 112.49 21.6932C115.24 21.6932 117.481 19.4519 117.481 16.7022C117.481 13.9487 115.244 11.7112 112.49 11.7112C109.737 11.7112 107.499 13.9487 107.499 16.7022ZM87.1117 26.4416V34.4865C87 33.5738 86.7766 32.7574 86.4185 32.0449C85.8909 31.0167 85.1553 30.1617 84.1964 29.4917C83.3184 28.8716 82.2439 28.4095 81 28.0899V11.8883L79.7946 9.21181L84.466 7.24005L86.5456 9.81258C87.2888 9.06162 88.1707 8.457 89.1836 7.99872C90.1964 7.54044 91.2978 7.30937 92.4917 7.30937C95.1605 7.30937 97.1438 8.17202 98.4454 9.8973C99.751 11.6264 100.406 14.0372 100.406 17.1374C100.406 18.6162 100.178 19.9564 99.7279 21.1502C99.2773 22.3479 98.6187 23.3723 97.7715 24.2195C96.9204 25.0668 95.8768 25.7176 94.656 26.172C93.4275 26.6303 92.0295 26.8614 90.4583 26.8614C89.9268 26.8614 89.3607 26.8151 88.7599 26.7343C88.1746 26.6573 87.62 26.5571 87.1117 26.4416ZM87.1117 22.4942C87.4814 22.6329 87.8896 22.7522 88.3248 22.8447C88.7676 22.941 89.2567 22.9872 89.7843 22.9872C91.2246 22.9872 92.3261 22.4827 93.1001 21.4737C93.8742 20.4608 94.2632 19.0051 94.2632 17.1027C94.2632 16.2362 94.2131 15.4352 94.1207 14.7073C94.0244 13.9795 93.8472 13.3556 93.5854 12.8395C93.3158 12.3196 92.9538 11.9153 92.4994 11.6226C92.0449 11.3261 91.4519 11.1797 90.7086 11.1797C90.0115 11.1797 89.3569 11.3684 88.733 11.742C88.0976 12.1155 87.5623 12.5777 87.1117 13.113V22.4942ZM75.1656 27.9666C74.1528 29.303 72.9435 30.7317 71.5032 32.2567C71.3029 32.4724 71.095 32.6881 70.8793 32.9076C68.9153 34.9332 66.5661 37.1284 63.751 39.5006L63.1348 40.0899L62.6919 40.5096L61.9718 40.81C61.5327 40.9987 61.1515 41.095 60.7741 41.095C60.3158 41.095 59.8729 40.9448 59.3607 40.6329C59.3607 40.6329 53.792 35.3299 50.0488 31.5828C49.9255 31.4596 49.7946 31.3479 49.6675 31.2323C48.9589 30.57 48.2426 30.0501 47.5417 29.6457C47.484 29.6072 47.4223 29.5725 47.3646 29.5379L47.2798 29.4377C47.2798 29.4377 44.9191 28.1361 42.8049 28.1361H42.6547C42.3543 28.1284 42.181 28.1361 42.181 28.1361H37.9024V26.1605H28.0745V28.1361H21.9628V22.3633H24.362C25.0552 21.2619 25.656 19.5019 26.1797 17.0796C26.1797 17.0796 25.8678 18.389 27.0193 12.8472C28.1669 7.30167 32.9884 7.70989 32.9884 7.70989H42.1771V22.3671H44.018H44.534C44.534 22.3671 45.7895 22.294 47.4685 22.837C48.7125 23.2375 50.1836 23.973 51.5469 25.3402C51.5507 25.344 51.5546 25.3479 51.5623 25.3479C51.724 25.5096 51.8703 25.6675 52.0128 25.8293C52.0321 25.8331 52.0513 25.837 52.0745 25.8447C55.4095 29.0719 58.4519 32.1104 60.4429 33.9166C60.5738 34.0359 60.7086 34.1553 60.8318 34.267C61.6059 33.6008 62.38 32.9153 63.1425 32.2259C64.6675 30.8395 66.1463 29.4069 67.4942 27.9705C68.172 27.2465 68.8113 26.5225 69.4159 25.8023C72.7818 21.7702 74.7574 17.8729 73.4018 15.0462C70.4942 12.3736 68.5533 13.3748 63.3504 18.1463L60.9281 20.3646L58.9525 17.9923C56.3415 14.8614 53.8883 13.2439 51.7895 13.3055C49.706 13.371 48.3427 15.1926 48.3273 15.2118L43.5212 11.8229C43.8177 11.3954 46.5674 7.64057 51.4852 7.42876C54.828 7.28626 58.1553 8.81515 61.4095 11.9807C65.6688 8.33376 71.4108 4.82542 77.8306 11.1374L78.1078 11.4108L78.3081 11.7458C80.1682 14.9384 81.3658 19.7831 75.1656 27.9666ZM36.181 11.5802H35.3569C35.3569 11.5802 32.2221 10.6675 31.7869 17.7112C31.6791 19.5019 30.9358 21.0231 30.2696 22.3594H36.181V11.5802Z" fill="white"/>
<path d="M42.1924 28.144H42.6653C42.3654 28.1363 42.1924 28.144 42.1924 28.144Z" fill="white"/>
<path d="M47.3721 29.5449L47.6643 29.88C47.5912 29.7721 47.5643 29.699 47.5489 29.6489C47.4913 29.6142 47.4297 29.5757 47.3721 29.5449Z" fill="white"/>
</g>
</g>
<defs>
<filter id="filter0_d_140_10189" x="-4" y="0" width="171.745" height="68" filterUnits="userSpaceOnUse" color-interpolation-filters="sRGB">
<feFlood flood-opacity="0" result="BackgroundImageFix"/>
<feColorMatrix in="SourceAlpha" type="matrix" values="0 0 0 0 0 0 0 0 0 0 0 0 0 0 0 0 0 0 127 0" result="hardAlpha"/>
<feOffset dy="4"/>
<feGaussianBlur stdDeviation="2"/>
<feComposite in2="hardAlpha" operator="out"/>
<feColorMatrix type="matrix" values="0 0 0 0 0 0 0 0 0 0 0 0 0 0 0 0 0 0 0.25 0"/>
<feBlend mode="normal" in2="BackgroundImageFix" result="effect1_dropShadow_140_10189"/>
<feBlend mode="normal" in="SourceGraphic" in2="effect1_dropShadow_140_10189" result="shape"/>
</filter>
<clipPath id="clip0_140_10189">
<rect width="163.748" height="60" fill="white"/>
</clipPath>
</defs>
</svg>
