<svg width="31" height="27" viewBox="0 0 31 27" fill="none" xmlns="http://www.w3.org/2000/svg">
<path d="M2.37267 11.7118C11.7987 7.56501 23.9967 2.50926 25.6804 1.80951C30.0972 -0.0219893 31.4524 0.32901 30.7767 4.38501C30.2914 7.30026 28.8912 16.952 27.7752 22.9595C27.1129 26.522 25.6272 26.9443 23.2909 25.403C22.1674 24.6613 16.4967 20.9113 15.2659 20.0308C14.1424 19.2283 12.5929 18.263 14.5362 16.3618C15.2277 15.6845 19.7607 11.3563 23.2924 7.98726C23.7552 7.54476 23.1739 6.81801 22.6399 7.17276C17.8797 10.3295 11.2797 14.711 10.4397 15.2818C9.17067 16.1435 7.95192 16.5388 5.76417 15.9103C4.11117 15.4355 2.49642 14.8693 1.86792 14.6533C-0.552327 13.8223 0.0221732 12.746 2.37267 11.7118Z" fill="#B3CBDB"/>
</svg>
