<svg width="36" height="36" viewBox="0 0 36 36" fill="none" xmlns="http://www.w3.org/2000/svg">
<path d="M11.7646 34.4707C11.6198 34.4707 11.4736 34.4445 11.3326 34.3913C10.8631 34.212 10.5533 33.762 10.5533 33.2595V29.55C8.81184 29.0288 7.17309 28.2855 6.11484 27.336C4.01334 25.2165 3.05859 22.2472 3.05859 17.943V15.5205C3.05859 11.2163 4.01334 8.247 6.06309 6.17775C9.59484 3 15.9226 3 18.0016 3C20.0806 3 26.4076 3 29.8876 6.129C31.9883 8.24625 32.9431 11.2148 32.9431 15.5205L32.9438 17.943C32.9438 22.2472 31.9891 25.2165 29.9393 27.2858C26.4076 30.4627 20.0798 30.4627 18.0008 30.4627C17.5036 30.4627 16.9546 30.4628 16.0193 30.4155C15.0398 31.5113 12.6683 34.0665 12.6683 34.0665C12.4336 34.329 12.1028 34.4707 11.7646 34.4707ZM24.3398 22.3905C23.5066 21.6885 23.1218 21.4762 21.9713 20.7855C21.4921 20.4983 20.7616 20.25 20.3783 20.25C20.1166 20.25 19.8031 20.4503 19.6111 20.6423C19.1191 21.1343 18.9578 21.75 18.0953 21.75C17.2516 21.75 15.7778 20.8913 14.7203 19.7812C13.6103 18.7238 12.7516 17.25 12.7516 16.4062C12.7516 15.5437 13.3561 15.3712 13.8481 14.8785C14.0401 14.6872 14.2516 14.3737 14.2516 14.112C14.2516 13.7288 14.0033 13.0095 13.7161 12.5303C13.0253 11.379 12.8138 10.9942 12.1111 10.1617C11.8733 9.87975 11.6026 9.75075 11.3191 9.75C10.8398 9.74925 10.2106 9.987 9.78459 10.3043C9.14409 10.782 8.47434 11.4323 8.29509 12.2423C8.27109 12.3525 8.25684 12.4635 8.25234 12.5745C8.21784 13.4183 8.54934 14.2747 8.90709 15C9.74934 16.7093 10.8638 18.3637 12.0766 19.8412C12.4643 20.3137 12.8866 20.7533 13.3238 21.1777C13.7483 21.6143 14.1878 22.0365 14.6603 22.425C16.1378 23.6378 17.7923 24.7522 19.5016 25.5945C20.2201 25.9485 21.0661 26.274 21.9016 26.25C22.0208 26.2463 22.1401 26.2328 22.2593 26.2065C23.0693 26.028 23.7196 25.3575 24.1973 24.717C24.5146 24.291 24.7523 23.6625 24.7516 23.1825C24.7508 22.899 24.6218 22.6283 24.3398 22.3905ZM27.0016 16.5V15.75C27.0016 11.2013 23.3003 7.5 18.7516 7.5C18.3376 7.5 18.0016 7.836 18.0016 8.25C18.0016 8.664 18.3376 9 18.7516 9C22.4731 9 25.5016 12.0285 25.5016 15.75V16.5C25.5016 16.914 25.8376 17.25 26.2516 17.25C26.6656 17.25 27.0016 16.914 27.0016 16.5ZM21.8348 15.7252C22.2353 15.6202 22.4753 15.2115 22.3711 14.8102C22.0283 13.4963 21.0008 12.4695 19.6898 12.1298C19.2871 12.027 18.8791 12.2678 18.7756 12.6683C18.6721 13.0695 18.9128 13.4783 19.3141 13.5825C20.0993 13.785 20.7143 14.4008 20.9198 15.189C21.0076 15.5265 21.3121 15.75 21.6451 15.75C21.7073 15.75 21.7711 15.7417 21.8348 15.7252ZM24.7516 15.75C24.7516 12.561 22.2571 9.93075 19.0718 9.76275C18.6646 9.74025 18.3053 10.0583 18.2836 10.4722C18.2618 10.8855 18.5791 11.2387 18.9931 11.2605C21.3811 11.3865 23.2516 13.359 23.2516 15.75C23.2516 16.164 23.5876 16.5 24.0016 16.5C24.4156 16.5 24.7516 16.164 24.7516 15.75Z" fill="#B3CBDB"/>
</svg>
