<svg width="32" height="22" viewBox="0 0 32 22" fill="none" xmlns="http://www.w3.org/2000/svg">
<rect x="0.75" y="0.75" width="30.5" height="20.5" rx="6.25" stroke="white" stroke-width="1.5"/>
<g clip-path="url(#clip0_305_8206)">
<path d="M19.2564 12.4117L19.2517 12.4506C18.1126 11.8828 17.9934 11.8072 17.8463 12.0279C17.7442 12.1807 17.4469 12.5273 17.3573 12.6298C17.2666 12.7308 17.1765 12.7386 17.0226 12.6687C16.8672 12.591 16.3684 12.4278 15.7778 11.8994C15.3178 11.4876 15.0091 10.9825 14.9179 10.8271C14.7661 10.565 15.0836 10.5277 15.3727 9.98063C15.4245 9.87184 15.3981 9.78637 15.3598 9.70918C15.3209 9.63148 15.0116 8.86998 14.8821 8.56641C14.7578 8.26389 14.6299 8.30222 14.534 8.30222C14.2356 8.27632 14.0175 8.28046 13.8254 8.48042C12.9893 9.3994 13.2001 10.3474 13.9155 11.3555C15.3214 13.1955 16.0705 13.5343 17.4402 14.0047C17.81 14.1223 18.1473 14.1057 18.414 14.0673C18.7114 14.0202 19.3294 13.6939 19.4584 13.3286C19.5905 12.9634 19.5905 12.6604 19.5516 12.5905C19.5133 12.5205 19.4118 12.4817 19.2564 12.4117Z" fill="white"/>
<path d="M20.8194 6.7869C16.8363 2.9364 10.2444 5.72909 10.2418 11.1611C10.2418 12.2469 10.5262 13.3058 11.068 14.2408L10.1895 17.4329L13.4712 16.5771C17.5662 18.7891 22.62 15.8519 22.6221 11.1642C22.6221 9.51898 21.9798 7.97059 20.8116 6.8071L20.8194 6.7869ZM21.5871 11.1471C21.584 15.1012 17.2434 17.5707 13.8105 15.5524L13.624 15.4416L11.6814 15.9467L12.202 14.0585L12.0782 13.8642C9.94184 10.4633 12.3962 6.01867 16.4431 6.01867C17.8179 6.01867 19.1083 6.55482 20.0801 7.52613C21.0515 8.48914 21.5871 9.77954 21.5871 11.1471Z" fill="white"/>
</g>
<defs>
<clipPath id="clip0_305_8206">
<rect width="12.4327" height="12.4327" fill="white" transform="translate(10.1895 5)"/>
</clipPath>
</defs>
</svg>
