<svg width="24" height="24" viewBox="0 0 24 24" fill="none" xmlns="http://www.w3.org/2000/svg">
<path d="M19.5425 5.66261L19.5161 5.64609L16.1749 4L12.5686 8.8084L14.2277 11.0208C14.1781 11.8551 13.8243 12.6423 13.2332 13.2333C12.6422 13.8243 11.855 14.1781 11.0207 14.2278L8.80836 12.5686L4 16.1748L5.6324 19.4881L5.64613 19.5161L5.66269 19.5425C5.7498 19.6829 5.87139 19.7986 6.01588 19.8787C6.16036 19.9587 6.32295 20.0005 6.48814 20H7.3503C9.01148 20 10.6564 19.6728 12.1911 19.0371C13.7259 18.4014 15.1204 17.4696 16.295 16.295C17.4696 15.1203 18.4014 13.7258 19.0371 12.1911C19.6728 10.6564 20 9.01144 20 7.35026V6.48807C20.0005 6.32287 19.9588 6.16029 19.8787 6.0158C19.7986 5.87131 19.6829 5.74972 19.5425 5.66261ZM18.7653 7.35026C18.7653 13.6445 13.6445 18.7653 7.3503 18.7653H6.65267L5.56047 16.548L8.8086 14.1119L10.617 15.4682H10.8228C12.0544 15.4668 13.2353 14.9769 14.1062 14.106C14.9772 13.235 15.4671 12.0542 15.4684 10.8225V10.6167L14.1122 8.80836L16.548 5.56043L18.7653 6.65283V7.35026Z" fill="white"/>
</svg>
