<svg width="32" height="22" viewBox="0 0 32 22" fill="none" xmlns="http://www.w3.org/2000/svg">
<rect x="0.75" y="0.75" width="30.5" height="20.5" rx="6.25" stroke="white" stroke-width="1.5"/>
<g clip-path="url(#clip0_305_8210)">
<path d="M14.6909 12.9094L14.4852 15.802C14.7794 15.802 14.9069 15.6757 15.0597 15.5239L16.4392 14.2055L19.2977 16.2988C19.8219 16.591 20.1913 16.4372 20.3327 15.8166L22.209 7.02459L22.2095 7.02407C22.3758 6.24911 21.9293 5.94606 21.4185 6.13618L10.3897 10.3586C9.63698 10.6508 9.64838 11.0704 10.2617 11.2605L13.0813 12.1375L19.6308 8.03941C19.939 7.83531 20.2192 7.94824 19.9887 8.15234L14.6909 12.9094Z" fill="white"/>
</g>
<defs>
<clipPath id="clip0_305_8210">
<rect width="12.4327" height="12.4327" fill="white" transform="translate(9.8125 5)"/>
</clipPath>
</defs>
</svg>
