<svg width="32" height="32" viewBox="0 0 32 32" fill="none" xmlns="http://www.w3.org/2000/svg">
<path d="M22.1998 3H10.1262C6.19676 3 3 6.19676 3 10.1262V22.2C3 26.1293 6.19676 29.326 10.1262 29.326H22.2C26.1293 29.326 29.326 26.1293 29.326 22.2V10.1262C29.326 6.19676 26.1293 3 22.1998 3V3ZM27.7827 22.2C27.7827 25.2783 25.2783 27.7827 22.1998 27.7827H10.1262C7.04776 27.7827 4.54334 25.2783 4.54334 22.2V10.1262C4.54334 7.04776 7.04776 4.54334 10.1262 4.54334H22.2C25.2783 4.54334 27.7827 7.04776 27.7827 10.1262V22.2Z" fill="#00AFF0"/>
<path d="M16.1632 8.96484C12.1939 8.96484 8.96484 12.1939 8.96484 16.1632C8.96484 20.1324 12.1939 23.3615 16.1632 23.3615C20.1324 23.3615 23.3615 20.1324 23.3615 16.1632C23.3615 12.1939 20.1324 8.96484 16.1632 8.96484ZM16.1632 21.8181C13.0451 21.8181 10.5082 19.2814 10.5082 16.1632C10.5082 13.0451 13.0451 10.5082 16.1632 10.5082C19.2814 10.5082 21.8181 13.0451 21.8181 16.1632C21.8181 19.2814 19.2814 21.8181 16.1632 21.8181Z" fill="#00AFF0"/>
<path d="M23.5333 6.4082C22.3603 6.4082 21.4062 7.36245 21.4062 8.53522C21.4062 9.7082 22.3603 10.6624 23.5333 10.6624C24.7062 10.6624 25.6605 9.7082 25.6605 8.53522C25.6605 7.36225 24.7062 6.4082 23.5333 6.4082ZM23.5333 9.1189C23.2115 9.1189 22.9496 8.85699 22.9496 8.53522C22.9496 8.21326 23.2115 7.95155 23.5333 7.95155C23.8552 7.95155 24.1171 8.21326 24.1171 8.53522C24.1171 8.85699 23.8552 9.1189 23.5333 9.1189Z" fill="#00AFF0"/>
</svg>
