<svg width="300" height="122" viewBox="0 0 300 122" fill="none" xmlns="http://www.w3.org/2000/svg">
<path d="M77.406 20.0815C75.0807 17.8792 72.0664 16.8164 68.9277 16.8164C63.0904 16.759 57.6838 21.6518 57.6264 29.1298C57.6264 34.9705 61.3967 41.0697 68.9947 41.0697C72.2004 41.0697 75.3391 39.691 77.6644 37.5557L80.4299 40.8878C77.4826 43.7794 73.4635 45.4742 69.0042 45.4742C58.2006 45.4742 52.7461 37.3068 52.7461 29.0053C52.8035 20.7134 58.4015 12.4215 69.0042 12.3545C73.4635 12.3545 77.0424 13.7429 80.1237 16.759L77.406 20.0815Z" fill="#00AFF0"/>
<path d="M84.3047 13.1123H109.74V17.2583H99.5006V44.9681H94.4768V17.2583H84.3047V13.1123Z" fill="#00AFF0"/>
<path d="M118.064 52.8196C121.892 53.26 123.337 51.7472 124.16 49.679L125.921 45.0926L112.926 13.1123H118.198L128.495 39.5008L138.284 13.1123H143.557L128.801 51.2493C126.916 56.2761 122.648 57.3485 118.064 56.9081V52.8196Z" fill="#00AFF0"/>
<path d="M175.011 13.1123V44.9681H170.054V17.2583H154.159V44.9681H149.26V13.1123H175.011Z" fill="#00AFF0"/>
<path d="M208.408 36.8014L212.369 39.1855C209.164 43.523 204.522 45.5337 199.24 45.5337C188.437 45.5337 182.982 37.1748 183.04 28.9499C183.04 20.7251 188.628 12.3661 199.173 12.2991C209.288 12.2417 216.063 20.7825 214.561 30.9607H187.815C188.188 36.3609 192.207 41.2059 199.24 41.2059C202.752 41.1963 206.274 39.693 208.408 36.8014ZM210.101 26.8051C209.594 20.9644 205.326 16.7515 199.24 16.627C192.331 16.694 188.695 21.5964 187.872 26.8051H210.101Z" fill="#00AFF0"/>
<path d="M227.796 13.1123V26.996H243.681V13.1123H248.638V44.9681H243.681V31.0845H227.796V44.9681H222.896V13.1123H227.796Z" fill="#00AFF0"/>
<path d="M258.801 7.76805C258.801 5.50836 258.801 2.99015 258.801 0.730469H263.892C263.892 2.99015 263.892 5.50836 263.892 7.76805H258.801ZM258.868 44.9667V12.7949H263.825V44.9667H258.868Z" fill="#00AFF0"/>
<path d="M274.494 13.1123H287.116C292.896 13.1123 298.608 15.1901 298.666 21.6627C298.666 24.4299 296.656 27.8864 293.642 28.4514C297.345 29.1408 299.862 32.5973 299.986 35.4219C300.302 42.7755 293.766 44.9777 287.613 44.9777H274.484V13.1123H274.494ZM279.269 17.1912V26.431H287.432C291.259 26.431 294.092 25.2342 293.967 21.6532C293.843 18.1966 290.829 17.1912 287.125 17.1912H279.269ZM279.269 30.4525V40.8796H287.623C291.699 40.8796 295.345 39.4338 295.221 35.6038C294.972 31.3909 290.264 30.3951 286.867 30.4525H279.269Z" fill="#00AFF0"/>
<path d="M16.1433 114.24C6.5932 114.24 0 106.887 0 97.5897C0 88.2924 6.5932 81.0059 16.1433 81.0059C25.7508 81.0059 32.344 88.2924 32.344 97.5897C32.344 106.887 25.7508 114.24 16.1433 114.24ZM16.1433 109.903C21.9231 109.903 27.4446 105.882 27.4446 97.5897C27.4446 89.2978 21.9135 85.4008 16.1433 85.4008C10.4305 85.4008 4.89944 89.2978 4.89944 97.5897C4.89944 105.882 10.4209 109.903 16.1433 109.903Z" fill="#00AFF0"/>
<path d="M59.5787 113.486V102.867C57.4448 103.556 55.0524 103.815 52.9855 103.815C45.4545 103.815 38.6699 99.5444 38.6699 90.3046V81.6297H43.5024V90.3046C43.5024 96.5283 48.1435 99.6593 53.2343 99.6593C55.3682 99.6593 57.5022 99.4104 59.5787 98.5869V81.6201H64.5356V113.476H59.5787V113.486Z" fill="#00AFF0"/>
<path d="M79.2821 113.486H74.9473V81.6299H79.8467V105.883L97.4924 81.6299H101.76V113.486H96.9278V89.3569L79.2821 113.486Z" fill="#00AFF0"/>
<path d="M150.477 109.273V81.6299H155.501V109.215H158.391L158.333 121.031H153.75V113.495H112.238V81.6395H117.253V109.282H131.444V81.6395H136.343V109.282H150.477V109.273Z" fill="#00AFF0"/>
<path d="M189.509 105.317L193.471 107.701C190.265 112.039 185.624 114.049 180.342 114.049C169.538 114.049 164.084 105.69 164.141 97.4656C164.141 89.2407 169.729 80.8818 180.275 80.8147C190.389 80.7573 197.165 89.2981 195.662 99.4763H168.916C169.289 104.877 173.308 109.721 180.342 109.721C183.863 109.712 187.385 108.209 189.509 105.317ZM191.212 95.3208C190.705 89.4801 186.437 85.2671 180.351 85.1426C173.442 85.2096 169.806 90.112 168.983 95.3208H191.212Z" fill="#00AFF0"/>
<path d="M208.905 81.6299V95.5136H224.79V81.6299H229.747V113.486H224.79V99.6021H208.905V113.486H204.006V81.6299H208.905Z" fill="#00AFF0"/>
<path d="M244.935 81.6299V95.5136H260.829V81.6299H265.786V113.486H260.829V99.6021H244.935V113.486H240.035V81.6299H244.935Z" fill="#00AFF0"/>
<path d="M298.607 113.486H293.842V100.167H288.694L278.148 113.486H272.809L283.105 100.042C278.081 99.4776 273.88 97.2753 273.88 90.9942C273.88 83.6406 279.277 81.6299 285.373 81.6299H298.617V113.486H298.607ZM293.832 96.2029V85.7758H285.354C281.899 85.8333 278.636 87.0302 278.636 90.9846C278.636 94.9486 281.899 96.2029 285.354 96.2029H293.832Z" fill="#00AFF0"/>
</svg>
