<svg width="110" height="40" viewBox="0 0 110 40" fill="none" xmlns="http://www.w3.org/2000/svg">
<g clip-path="url(#clip0_305_8164)">
<path d="M93.2615 23.3865H85.7359C85.7359 23.3865 81.7855 23.0604 80.8439 27.5637C79.9022 32.0694 80.1583 31.004 80.1583 31.004C79.7314 32.9732 79.2347 34.4032 78.6682 35.3018H76.7072V40.0001H81.7131V38.3929H89.7613V40.0001H94.7672V35.3018H93.2641V23.3865H93.2615ZM88.3514 35.3018H83.5085C84.0543 34.2132 84.6623 32.9757 84.7503 31.52C85.1047 25.7922 87.6736 26.5367 87.6736 26.5367H88.3488V35.3018H88.3514ZM109.671 26.5213C109.454 25.71 109.086 25.045 108.574 24.5316C108.062 24.0155 107.384 23.633 106.546 23.3865C105.708 23.1375 104.665 23.0117 103.423 23.0117C102.334 23.0117 101.173 23.1221 99.9386 23.3429C98.7072 23.5611 97.631 23.8615 96.7152 24.2466L97.9906 27.0245C98.6891 26.7549 99.4238 26.547 100.2 26.3929C100.973 26.2415 101.853 26.1644 102.834 26.1644C103.773 26.1644 104.427 26.416 104.797 26.9218C105.17 27.4276 105.353 28.072 105.353 28.8551V29.3993H103.258C100.816 29.3993 98.9892 29.7665 97.7785 30.5008C96.5678 31.235 95.9624 32.4802 95.9624 34.2389C95.9624 35.7126 96.4099 36.8551 97.3025 37.6766C98.1976 38.4982 99.4497 38.909 101.064 38.909C101.915 38.909 102.704 38.7524 103.436 38.4366C104.163 38.1208 104.945 37.6484 105.775 37.0168L105.837 38.9064L109.927 38.8499L109.997 35.271V29.4558C110 28.3108 109.888 27.3326 109.671 26.5213ZM105.351 34.7267C105.045 34.9937 104.642 35.2325 104.137 35.443C103.635 35.6535 103.167 35.7588 102.733 35.7588C102.055 35.7588 101.537 35.6201 101.178 35.3429C100.818 35.0656 100.64 34.5649 100.64 33.8384C100.64 33.0168 100.867 32.4828 101.325 32.2363C101.783 31.9873 102.427 31.864 103.255 31.864H105.351V34.7267ZM68.3046 22.7703C63.7928 22.7703 60.1244 26.4135 60.1244 30.8884C60.1244 35.3634 63.7928 39.004 68.3046 39.004C72.8138 39.004 76.4822 35.3634 76.4822 30.8884C76.4822 26.416 72.8138 22.7703 68.3046 22.7703ZM68.3046 34.9475C66.0487 34.9475 64.2145 33.1272 64.2145 30.891C64.2145 28.6522 66.0513 26.832 68.3046 26.832C70.5579 26.832 72.3921 28.6522 72.3921 30.891C72.3921 33.1272 70.5579 34.9475 68.3046 34.9475ZM58.7223 30.1721C58.1894 29.3223 57.2115 28.6189 55.7964 28.0669C56.7794 27.5483 57.4883 26.9346 57.9203 26.2183C58.3601 25.502 58.5748 24.7139 58.5748 23.8538C58.5748 23.5508 58.5541 23.2658 58.5205 22.9886C58.4455 22.3801 58.2954 21.8358 58.0548 21.3608C57.7004 20.6753 57.2063 20.1054 56.5621 19.6587C55.9723 19.2453 55.2505 18.9372 54.4149 18.7241C54.3425 18.7061 54.2778 18.6856 54.2053 18.6702C54.164 18.6599 54.1226 18.6522 54.0812 18.6445H53.4396H50.4904C49.81 19.5354 48.9977 20.4879 48.0301 21.5046H50.0325C51.2096 21.5046 52.0788 21.692 52.635 22.0643C53.1886 22.4366 53.4706 23.1015 53.4706 24.054C53.4706 25.0065 53.2171 25.6766 52.7178 26.0566C52.2159 26.4417 51.3751 26.6317 50.1981 26.6317H47.6136V21.9385C46.2942 23.2889 44.7162 24.7524 42.8251 26.3339L42.4111 26.7267V39.0065H51.4088C54.1355 39.0065 56.1715 38.5085 57.5116 37.5174C58.8542 36.5264 59.5243 35.045 59.5243 33.0759C59.5243 31.9873 59.2552 31.0194 58.7223 30.1721ZM54.045 34.3647C53.8587 34.7293 53.5922 35.0091 53.243 35.2119C52.8911 35.4122 52.4669 35.5457 51.965 35.6124C51.4657 35.6818 50.9069 35.7151 50.2964 35.7151H47.611V30.1875H50.4568C51.0906 30.1875 51.6494 30.2183 52.1254 30.2877C52.6066 30.3544 53.0127 30.4879 53.3361 30.6882C53.6647 30.8884 53.9078 31.1657 54.0734 31.52C54.2364 31.8743 54.3166 32.3441 54.3166 32.9398C54.3218 33.5251 54.2312 34.0053 54.045 34.3647Z" fill="#00AFF0"/>
<path d="M42.4111 21.4815C43.4356 20.5572 44.429 19.6022 45.3345 18.6445L42.4111 21.4815Z" fill="white"/>
<path d="M34.9344 17.2174C34.9473 17.22 34.9602 17.2225 34.9757 17.2277C34.8621 17.1173 34.7484 17.0069 34.6348 16.8965C34.7407 17.0069 34.8414 17.1121 34.9344 17.2174Z" fill="white"/>
<path d="M34.6302 16.8958C34.6302 16.8932 34.6276 16.8932 34.625 16.8906C34.6276 16.8932 34.6302 16.8958 34.6353 16.8958C34.6328 16.8983 34.6327 16.8958 34.6302 16.8958Z" fill="#91C81E"/>
<path d="M14.314 11.2169C14.4123 11.6483 14.4614 12.0976 14.4614 12.5674C14.4614 14.1823 13.8302 15.4403 12.5703 16.3492C11.3079 17.258 9.48142 17.7099 7.08325 17.7099C6.26058 17.7099 5.50776 17.6585 4.82737 17.5584C4.14958 17.4583 3.52352 17.3196 2.9492 17.1476C2.37488 16.9756 1.84972 16.7779 1.36595 16.5494C0.88476 16.3209 0.429445 16.0847 0 15.8331L1.61171 13.3427C2.02046 13.5481 2.4111 13.7356 2.77846 13.9076C3.14581 14.0796 3.53904 14.2285 3.95814 14.3543C4.37982 14.4775 4.85066 14.5777 5.36806 14.6496C5.88547 14.7189 6.49341 14.7548 7.19191 14.7548C8.28363 14.7548 9.06232 14.5546 9.5254 14.154C9.99106 13.7561 10.2213 13.2041 10.2213 12.4981C10.2213 11.6508 9.95484 11.0372 9.41933 10.6547C8.88123 10.2721 7.96025 10.077 6.65381 10.077H3.51576V7.25802H6.14675C7.36265 7.25802 8.2707 7.10141 8.8683 6.78819C9.46848 6.47497 9.76599 5.87933 9.76599 5.00385C9.76599 4.39281 9.56679 3.89217 9.16322 3.49936C8.75964 3.10911 8.00423 2.91142 6.8944 2.91142C5.92686 2.91142 5.06021 3.04493 4.29186 3.30937C3.52093 3.57638 2.83278 3.85879 2.22484 4.15661L0.698495 1.69191C1.57549 1.23748 2.5508 0.842105 3.62441 0.505777C4.69544 0.169448 5.97601 0 7.46096 0C8.74929 0 9.81514 0.12837 10.6559 0.387677C11.4941 0.646983 12.1564 0.996149 12.6376 1.43517C13.1239 1.8742 13.4628 2.3697 13.6595 2.92683C13.8587 3.48395 13.957 4.05648 13.957 4.65212C13.957 4.91656 13.9259 5.21438 13.8612 5.543C13.8017 5.8742 13.6801 6.20539 13.5016 6.54172C13.3206 6.87805 13.067 7.20668 12.7359 7.5276C12.4047 7.84852 11.9779 8.1335 11.4605 8.38254C12.0322 8.56996 12.5108 8.80359 12.8963 9.07574C13.2792 9.35045 13.587 9.66881 13.8224 10.0282C14.0501 10.3902 14.2183 10.7856 14.314 11.2169ZM96.2448 13.7664C96.2448 14.9243 95.849 15.8023 95.0522 16.3954C94.2554 16.991 93.0447 17.2888 91.4174 17.2888H84.1169V4.98074H91.2286C92.6049 4.98074 93.694 5.24005 94.4882 5.7561C95.2824 6.27214 95.6809 7.10911 95.6809 8.26701C95.6809 8.77022 95.5515 9.23235 95.2928 9.6534C95.0315 10.0745 94.6072 10.4442 94.0174 10.7574C94.8763 11.086 95.461 11.5045 95.774 12.0128C96.087 12.5237 96.2448 13.1091 96.2448 13.7664ZM88.1423 9.82028H89.8057C90.5068 9.82028 91.0061 9.72272 91.3088 9.52503C91.6115 9.32991 91.7641 8.98074 91.7641 8.4801C91.7641 7.97946 91.6011 7.6611 91.2674 7.5276C90.9363 7.39409 90.4111 7.32734 89.6971 7.32734H88.1397V9.82028H88.1423ZM92.2737 13.6714C92.2737 13.0449 92.0746 12.647 91.6813 12.4724C91.2881 12.3004 90.7164 12.2131 89.9661 12.2131H88.1397V14.9371H89.8575C90.2326 14.9371 90.5689 14.9294 90.8612 14.914C91.1562 14.8986 91.4071 14.8498 91.6115 14.7728C91.8184 14.6958 91.9788 14.57 92.0952 14.3979C92.2168 14.2285 92.2737 13.9846 92.2737 13.6714ZM105.418 9.91271V9.46598C105.418 8.82413 105.266 8.29525 104.963 7.8819C104.658 7.46598 104.122 7.25802 103.351 7.25802C102.547 7.25802 101.828 7.32221 101.194 7.44544C100.557 7.57125 99.952 7.74326 99.3803 7.96406L98.3325 5.68421C99.0854 5.37099 99.965 5.12452 100.974 4.94223C101.985 4.76252 102.937 4.67266 103.835 4.67266C104.854 4.67266 105.708 4.77535 106.396 4.97818C107.087 5.18357 107.638 5.49679 108.06 5.91784C108.481 6.34146 108.782 6.88575 108.96 7.55071C109.139 8.21823 109.229 9.01669 109.229 9.95892V14.7291L109.172 17.6662L105.819 17.7125L105.768 16.1617C105.087 16.6804 104.448 17.0655 103.851 17.3248C103.25 17.5815 102.604 17.7099 101.905 17.7099C100.581 17.7099 99.5536 17.3736 98.8189 16.7009C98.0868 16.0282 97.722 15.086 97.722 13.8819C97.722 12.4416 98.2187 11.4198 99.2095 10.8164C100.203 10.2131 101.698 9.91271 103.703 9.91271H105.418ZM105.418 11.9332H103.701C103.02 11.9332 102.492 12.0359 102.117 12.2388C101.74 12.4442 101.553 12.8806 101.553 13.5533C101.553 14.1489 101.701 14.5623 101.996 14.7882C102.291 15.0141 102.718 15.1297 103.271 15.1297C103.628 15.1297 104.014 15.0424 104.425 14.8703C104.836 14.6983 105.167 14.5032 105.416 14.2824V11.9332H105.418ZM68.8612 11.1348C68.8612 7.46341 71.8674 4.47754 75.5668 4.47754C79.2636 4.47754 82.2749 7.46341 82.2749 11.1348C82.2749 14.8036 79.2636 17.792 75.5668 17.792C71.8674 17.792 68.8612 14.8062 68.8612 11.1348ZM72.214 11.1348C72.214 12.9679 73.7197 14.4621 75.5668 14.4621C77.4139 14.4621 78.9196 12.9679 78.9196 11.1348C78.9196 9.2991 77.4165 7.80745 75.5668 7.80745C73.7171 7.80745 72.214 9.2991 72.214 11.1348ZM58.5183 17.6277V22.991C58.4433 22.3825 58.2933 21.8383 58.0527 21.3633C57.6983 20.6778 57.2041 20.1078 56.56 19.6611C55.9701 19.2478 55.2484 18.9397 54.4127 18.7266V7.92555L53.603 6.14121L56.7411 4.8267L58.138 6.54172C58.6373 6.04108 59.2298 5.638 59.9102 5.33248C60.5905 5.02696 61.3304 4.87291 62.1324 4.87291C63.9252 4.87291 65.2575 5.44801 66.1319 6.5982C67.0089 7.75096 67.4487 9.35815 67.4487 11.4249C67.4487 12.4108 67.2961 13.3042 66.9934 14.1001C66.6907 14.8986 66.2484 15.5815 65.6792 16.1463C65.1075 16.7112 64.4064 17.1451 63.5863 17.448C62.761 17.7535 61.822 17.9076 60.7665 17.9076C60.4095 17.9076 60.0292 17.8768 59.6256 17.8228C59.2324 17.7715 58.8598 17.7048 58.5183 17.6277ZM58.5183 14.9961C58.7667 15.0886 59.0409 15.1682 59.3333 15.2298C59.6308 15.294 59.9593 15.3248 60.3137 15.3248C61.2813 15.3248 62.0212 14.9884 62.5412 14.3158C63.0611 13.6406 63.3224 12.6701 63.3224 11.4018C63.3224 10.8241 63.2888 10.2901 63.2267 9.80488C63.162 9.31964 63.043 8.90372 62.8671 8.55969C62.686 8.21309 62.4428 7.94352 62.1376 7.7484C61.8323 7.55071 61.4339 7.45315 60.9346 7.45315C60.4664 7.45315 60.0266 7.57895 59.6075 7.82798C59.1806 8.07702 58.821 8.38511 58.5183 8.74198V14.9961ZM50.4934 18.6444C49.813 19.5353 49.0007 20.4878 48.0332 21.5045C47.8986 21.6483 47.7589 21.792 47.6141 21.9384C46.2947 23.2888 44.7166 24.7522 42.8255 26.3338L42.4116 26.7266L42.1141 27.0064L41.6303 27.2067C41.3354 27.3325 41.0793 27.3967 40.8257 27.3967C40.5179 27.3967 40.2204 27.2965 39.8763 27.0886C39.8763 27.0886 36.1355 23.5533 33.6209 21.0552C33.5381 20.973 33.4501 20.8986 33.3648 20.8216C32.8888 20.38 32.4076 20.0334 31.9367 19.7638C31.8979 19.7381 31.8565 19.715 31.8177 19.6919L31.7608 19.6252C31.7608 19.6252 30.175 18.7574 28.7547 18.7574H28.6538C28.452 18.7522 28.3356 18.7574 28.3356 18.7574H25.4614V17.4403H18.8594V18.7574H14.7538V14.9089H16.3655C16.8311 14.1746 17.2347 13.0013 17.5865 11.3864C17.5865 11.3864 17.377 12.2593 18.1505 8.56483C18.9214 4.86778 22.1604 5.13992 22.1604 5.13992H28.333V14.9114H29.5696H29.9163C29.9163 14.9114 30.7596 14.8626 31.8876 15.2246C32.7232 15.4917 33.7114 15.982 34.6272 16.8935C34.6298 16.896 34.6324 16.8986 34.6376 16.8986C34.7462 17.0064 34.8445 17.1117 34.9403 17.2195C34.9532 17.2221 34.9661 17.2246 34.9817 17.2298C37.222 19.3813 39.2658 21.4069 40.6032 22.611C40.6912 22.6906 40.7817 22.7702 40.8645 22.8447C41.3845 22.4005 41.9045 21.9435 42.4167 21.484C43.4412 20.5597 44.4346 19.6046 45.3401 18.647C45.7954 18.1643 46.2248 17.6816 46.631 17.2015C48.892 14.5135 50.2192 11.9153 49.3086 10.0308C47.3554 8.24904 46.0515 8.91656 42.5564 12.0976L40.9292 13.5764L39.6021 11.9949C37.8481 9.90757 36.2001 8.82927 34.7902 8.87035C33.3906 8.91399 32.4748 10.1284 32.4645 10.1412L29.2359 7.8819C29.4351 7.59692 31.2822 5.09371 34.5858 4.9525C36.8314 4.85751 39.0666 5.87677 41.2526 7.98716C44.1138 5.55584 47.9711 3.21694 52.2836 7.4249L52.4699 7.60719L52.6044 7.83055C53.8539 9.95892 54.6585 13.1887 50.4934 18.6444ZM24.305 7.72015H23.7514C23.7514 7.72015 21.6456 7.11168 21.3532 11.8074C21.2808 13.0013 20.7815 14.0154 20.334 14.9063H24.305V7.72015Z" fill="#91C81E"/>
<path d="M28.3438 18.762H28.6615C28.46 18.7569 28.3438 18.762 28.3438 18.762Z" fill="white"/>
<path d="M31.8232 19.6973L32.0196 19.9206C31.9705 19.8487 31.9524 19.8 31.9421 19.7666C31.9033 19.7435 31.862 19.7178 31.8232 19.6973Z" fill="white"/>
</g>
<defs>
<clipPath id="clip0_305_8164">
<rect width="110" height="40" fill="white"/>
</clipPath>
</defs>
</svg>
