<svg width="83" height="122" viewBox="0 0 83 122" fill="none" xmlns="http://www.w3.org/2000/svg">
<path d="M83 41.0109C83 49.3826 80.6095 57.0751 76.1709 64.0765L40.6441 121.32H24.4213L49.8697 80.1347C47.305 80.4773 44.404 80.8198 41.503 80.8198C12.8113 80.8198 0 60.8252 0 41.0049C0 20.6797 14.0065 0 41.503 0C68.8253 0 83 20.6797 83 41.0109ZM69.1677 41.1852C69.1677 27.3446 59.7739 13.1615 41.503 13.1615C23.0579 13.1615 13.6642 27.3446 13.8323 41.1852C13.8323 54.6832 23.2261 67.8447 41.503 67.8447C56.8729 67.8447 68.9995 56.9068 69.1677 41.1852Z" fill="#00AFF0"/>
</svg>
