<svg width="32" height="32" viewBox="0 0 32 32" fill="none" xmlns="http://www.w3.org/2000/svg">
<path d="M26.5065 5.00231C26.193 5.02488 25.8853 5.09767 25.5953 5.21783H25.5914C25.3131 5.32703 23.9898 5.87791 21.978 6.71291L14.7687 9.71758C9.59562 11.8727 4.51045 13.995 4.51045 13.995L4.57099 13.9718C4.57099 13.9718 4.22039 14.0859 3.85417 14.3343C3.62792 14.4767 3.43323 14.6632 3.28188 14.8822C3.10218 15.1432 2.95765 15.5423 3.01136 15.955C3.09925 16.6528 3.5563 17.0712 3.88444 17.3022C4.21649 17.5361 4.53291 17.6453 4.53291 17.6453H4.54072L9.30948 19.2351C9.52335 19.9145 10.7627 23.9465 11.0605 24.8752C11.2363 25.43 11.4072 25.7769 11.6211 26.0417C11.7246 26.177 11.8457 26.2901 11.9912 26.381C12.0669 26.4245 12.1475 26.4589 12.2315 26.4834L12.1826 26.4718C12.1973 26.4757 12.209 26.4873 12.2198 26.4911C12.2588 26.5018 12.2852 26.5056 12.335 26.5134C13.0899 26.7395 13.6964 26.2756 13.6964 26.2756L13.7306 26.2485L16.5461 23.7116L21.2651 27.2942L21.3725 27.3397C22.3559 27.7668 23.3521 27.5291 23.8785 27.1096C24.4088 26.6873 24.6148 26.1471 24.6148 26.1471L24.649 26.0601L28.2956 7.57304C28.3992 7.11688 28.4255 6.68972 28.3113 6.27511C28.1934 5.85551 27.9214 5.49462 27.5485 5.26325C27.2355 5.0749 26.8724 4.98399 26.5065 5.00231ZM26.4079 6.98351C26.404 7.0444 26.4157 7.03764 26.3883 7.15457V7.16521L22.7759 25.4599C22.7602 25.486 22.7339 25.543 22.6616 25.6001C22.5854 25.66 22.5249 25.6977 22.2075 25.573L16.4358 21.1941L12.9493 24.3389L13.6817 19.7096L23.1118 11.0116C23.5005 10.6541 23.3706 10.5787 23.3706 10.5787C23.398 10.1399 22.7837 10.4501 22.7837 10.4501L10.8926 17.74L10.8886 17.7207L5.18919 15.8216V15.8178L5.17454 15.8149C5.18453 15.8116 5.19431 15.8077 5.20383 15.8033L5.23509 15.7878L5.26536 15.7772C5.26536 15.7772 10.3544 13.6549 15.5275 11.4997C18.1175 10.4202 20.727 9.33293 22.7339 8.49406C24.7408 7.66002 26.2243 7.04827 26.3082 7.01541C26.3883 6.98448 26.3502 6.98448 26.4079 6.98448V6.98351Z" fill="#00AFF0"/>
</svg>
