<svg width="32" height="32" viewBox="0 0 32 32" fill="none" xmlns="http://www.w3.org/2000/svg">
<path fill-rule="evenodd" clip-rule="evenodd" d="M12.6419 10.3276C12.3864 9.64817 12.0913 9.69665 11.8948 9.68921C11.6982 9.68195 11.526 9.68555 11.2604 9.68987C11.0356 9.69353 10.6674 9.75144 10.3463 10.0747C10.0249 10.3974 9.12427 11.1735 9.06198 12.8185C9.00012 14.4631 10.1469 16.0973 10.307 16.3261C10.4671 16.5557 12.4969 20.1206 15.8707 21.5868C19.2449 23.0526 19.2625 22.6058 19.8815 22.573C20.5011 22.5406 21.9053 21.8382 22.2157 21.0685C22.526 20.2988 22.551 19.6296 22.472 19.4868C22.393 19.3446 22.1719 19.2522 21.8413 19.0728C21.5103 18.8931 19.8854 18.0228 19.5807 17.8997C19.2758 17.777 19.0534 17.7132 18.8161 18.0394C18.5787 18.3648 17.9046 19.0937 17.7002 19.3096C17.495 19.5257 17.2975 19.5457 16.9666 19.3654C16.6366 19.1861 15.5641 18.7925 14.3205 17.6063C13.3528 16.6834 12.7177 15.5635 12.5336 15.2219C12.3494 14.88 12.5324 14.7056 12.7076 14.5457C12.8647 14.4012 13.059 14.1676 13.2351 13.9787C13.4103 13.7898 13.4721 13.6528 13.5928 13.4336C13.7133 13.2149 13.6648 13.0177 13.5867 12.8473C13.5085 12.677 12.8973 11.0071 12.6419 10.3276Z" fill="#00AFF0"/>
<path d="M15.654 4.92019C18.6692 4.92019 21.5032 6.08442 23.6337 8.19842C25.7602 10.3085 26.9314 13.113 26.9314 16.0952C26.9314 19.0771 25.7602 21.8815 23.6337 23.9917C21.503 26.1058 18.6691 27.2702 15.654 27.2702C13.7454 27.2702 11.8592 26.7888 10.1991 25.878L9.47801 25.4824L8.69415 25.7314L5.00668 26.9028L6.16929 23.4736L6.4572 22.6244L5.99089 21.8586C4.93521 20.1245 4.37722 18.1315 4.37722 16.0952C4.37722 13.113 5.54841 10.3085 7.67495 8.19836C9.80546 6.08442 12.6391 4.92019 15.654 4.92019ZM15.654 3C8.36586 3 2.45703 8.86263 2.45703 16.0952C2.45703 18.5692 3.14902 20.8831 4.35075 22.8571L2.66564 27.8276C2.3768 28.6796 3.17962 29.498 4.03701 29.2256L9.27549 27.5614C11.1662 28.5986 13.3406 29.1904 15.654 29.1904C22.9431 29.1904 28.8515 23.3269 28.8515 16.0952C28.8515 8.86263 22.9431 3 15.654 3Z" fill="#00AFF0"/>
</svg>
